<?xml version="1.0" encoding="UTF-8"?>
<svg width="510px" height="485px" viewBox="0 0 510 485" version="1.1" xmlns="http://www.w3.org/2000/svg" xmlns:xlink="http://www.w3.org/1999/xlink">
    <title>synthetix exchange round logo 2</title>
    <defs>
        <filter id="filter-1">
            <feColorMatrix in="SourceGraphic" type="matrix" values="0 0 0 0 0.847000 0 0 0 0 0.847000 0 0 0 0 0.847000 0 0 0 1.000000 0"></feColorMatrix>
        </filter>
    </defs>
    <g id="Page-1" stroke="none" stroke-width="1" fill="none" fill-rule="evenodd">
        <g id="synthetix-exchange-round-logo">
            <ellipse id="Mask" fill="#0A0817" fill-rule="nonzero" cx="246" cy="242.5" rx="246" ry="242.5"></ellipse>
            <g filter="url(#filter-1)" id="Group-15">
                <g transform="translate(44.000000, 186.000000)">
                    <path d="M2,66.4044944 L30.8924932,66.4044944 L30.8924932,69.7752809 L5.61994115,69.7752809 L5.61994115,87.8426966 L26.8033004,87.8426966 L26.8033004,91.2134831 L5.61994115,91.2134831 L5.61994115,110.224719 L31.7639605,110.224719 L31.7639605,113.595506 L2,113.595506 L2,66.4044944 Z M62.2536578,89.4606742 L46.8353899,66.4044944 L51.0586546,66.4044944 L64.5999159,86.5617978 L78.2082132,66.4044944 L82.0962981,66.4044944 L66.6780303,89.4606742 L83.1018373,113.595506 L78.8115367,113.595506 L64.3317721,92.4269663 L49.7849716,113.595506 L45.8298507,113.595506 L62.2536578,89.4606742 Z M95.2236851,90 C95.2236851,85.3258193 96.1174887,81.1685575 97.9051229,77.5280899 C99.6927571,73.8876222 102.240098,71.0561899 105.547221,69.0337079 C108.854344,67.0112258 112.675355,66 117.010368,66 C121.971053,66 126.12724,67.3033578 129.479054,69.9101124 C132.830868,72.516867 134.998342,76.1797517 135.981541,80.8988764 L132.3616,80.8988764 C131.378401,77.2134647 129.523758,74.3707965 126.797616,72.3707865 C124.071474,70.3707765 120.742055,69.3707865 116.80926,69.3707865 C113.233992,69.3707865 110.105679,70.2471822 107.424227,72 C104.742776,73.7528178 102.664683,76.1909956 101.189884,79.3146067 C99.7150861,82.4382179 98.9776981,85.99998 98.9776981,90 C98.9776981,94.00002 99.7150861,97.5617821 101.189884,100.685393 C102.664683,103.809004 104.742776,106.247182 107.424227,108 C110.105679,109.752818 113.233992,110.629213 116.80926,110.629213 C120.831437,110.629213 124.172028,109.640459 126.831134,107.662921 C129.49024,105.685383 131.311365,102.809008 132.294564,99.0337079 L135.914505,99.0337079 C134.886615,103.797777 132.730314,107.483133 129.445536,110.089888 C126.160758,112.696642 122.015744,114 117.010368,114 C112.675355,114 108.854344,113 105.547221,111 C102.240098,108.99999 99.6927571,106.179793 97.9051229,102.539326 C96.1174887,98.8988582 95.2236851,94.7191247 95.2236851,90 Z M153.86848,66.3370787 L157.488421,66.3370787 L157.488421,87.8426966 L184.63798,87.8426966 L184.63798,66.3370787 L188.257921,66.3370787 L188.257921,113.595506 L184.63798,113.595506 L184.63798,91.2134831 L157.488421,91.2134831 L157.488421,113.595506 L153.86848,113.595506 L153.86848,66.3370787 Z M204.133782,113.595506 L222.233487,66.4044944 L226.523788,66.4044944 L244.623494,113.595506 L240.735409,113.595506 L235.104389,99.1685393 L213.518814,99.1685393 L207.887795,113.595506 L204.133782,113.595506 Z M214.591389,95.7977528 L234.031814,95.7977528 L224.311602,70.3820225 L214.591389,95.7977528 Z M260.499355,113.595506 L260.499355,66.4044944 L263.918188,66.4044944 L291.67107,106.921348 L291.67107,66.4044944 L295.223975,66.4044944 L295.223975,113.595506 L291.805142,113.595506 L264.05226,73.011236 L264.05226,113.595506 L260.499355,113.595506 Z M313.110914,90 C313.110914,85.3258193 314.004718,81.1685575 315.792352,77.5280899 C317.579986,73.8876222 320.104982,71.0561899 323.367414,69.0337079 C326.629847,67.0112258 330.450857,66 334.830561,66 C339.746555,66 343.880397,67.3033578 347.232211,69.9101124 C350.584026,72.516867 352.773845,76.1797517 353.801734,80.8988764 L350.248829,80.8988764 C349.176249,77.2134647 347.299261,74.3707965 344.61781,72.3707865 C341.936358,70.3707765 338.629285,69.3707865 334.696489,69.3707865 C331.121221,69.3707865 327.992908,70.2471822 325.311457,72 C322.630005,73.7528178 320.551912,76.1909956 319.077114,79.3146067 C317.602315,82.4382179 316.864927,85.99998 316.864927,90 C316.864927,94.00002 317.591143,97.5617821 319.043596,100.685393 C320.496048,103.809004 322.551797,106.247182 325.210903,108 C327.870009,109.752818 330.920114,110.629213 334.36131,110.629213 C337.757815,110.629213 340.718539,109.921355 343.243573,108.505618 C345.768606,107.089881 347.712629,105.157316 349.0757,102.707865 C350.438771,100.258415 351.120296,97.4831616 351.120296,94.3820225 L351.120296,92.3595506 L335.702029,92.3595506 L335.702029,88.988764 L354.606166,88.988764 L354.606166,113.595506 L351.589548,113.595506 L351.254368,102.808989 C350.137097,105.955072 348.126039,108.606731 345.221133,110.764045 C342.316227,112.921359 338.673977,114 334.294274,114 C330.182715,114 326.51812,112.988774 323.300378,110.966292 C320.082637,108.94381 317.579986,106.112378 315.792352,102.47191 C314.004718,98.8314425 313.110914,94.6741807 313.110914,90 Z M374.236039,66.4044944 L403.128533,66.4044944 L403.128533,69.7752809 L377.855981,69.7752809 L377.855981,87.8426966 L399.03934,87.8426966 L399.03934,91.2134831 L377.855981,91.2134831 L377.855981,110.224719 L404,110.224719 L404,113.595506 L374.236039,113.595506 L374.236039,66.4044944 Z" id="EXCHANGE" fill="#FFFFFF" fill-rule="nonzero"></path>
                    <path d="M9.59375,49 L9.59375,48 C8.78125,47.7916667 8.24479167,47.5104167 7.984375,47.15625 C7.72395833,46.8020833 7.59375,46.1875 7.59375,45.3125 L7.59375,45.3125 L7.59375,29.09375 L36.8125,29.09375 L36.8125,45.3125 C36.8125,46.1875 36.6770833,46.8020833 36.40625,47.15625 C36.1354167,47.5104167 35.6041667,47.7916667 34.8125,48 L34.8125,48 L34.8125,49 L43.71875,49 L43.71875,48 C42.9270833,47.7916667 42.3958333,47.5052083 42.125,47.140625 C41.8541667,46.7760417 41.71875,46.1666667 41.71875,45.3125 L41.71875,45.3125 L41.71875,10.03125 C41.71875,9.15625 41.8541667,8.54166667 42.125,8.1875 C42.3958333,7.83333333 42.9270833,7.55208333 43.71875,7.34375 L43.71875,7.34375 L43.71875,6.34375 L34.8125,6.34375 L34.8125,7.34375 C35.6041667,7.53125 36.1354167,7.80729167 36.40625,8.171875 C36.6770833,8.53645833 36.8125,9.15625 36.8125,10.03125 L36.8125,10.03125 L36.8125,25.03125 L7.59375,25.03125 L7.59375,10.03125 C7.59375,9.15625 7.72916667,8.54166667 8,8.1875 C8.27083333,7.83333333 8.80208333,7.55208333 9.59375,7.34375 L9.59375,7.34375 L9.59375,6.34375 L0.6875,6.34375 L0.6875,7.34375 C1.47916667,7.53125 2.01041667,7.80729167 2.28125,8.171875 C2.55208333,8.53645833 2.6875,9.15625 2.6875,10.03125 L2.6875,10.03125 L2.6875,45.3125 C2.6875,46.1875 2.55729167,46.8020833 2.296875,47.15625 C2.03645833,47.5104167 1.5,47.7916667 0.6875,48 L0.6875,48 L0.6875,49 L9.59375,49 Z M58.09375,49 L58.09375,48 C56.8645833,47.7916667 56.25,47.375 56.25,46.75 C56.25,46.4375 56.4270833,45.8958333 56.78125,45.125 L56.78125,45.125 L60.53125,37.03125 L83.375,37.03125 L86.84375,44.6875 C87.3020833,45.6458333 87.53125,46.2916667 87.53125,46.625 C87.53125,47.375 86.9270833,47.8333333 85.71875,48 L85.71875,48 L85.71875,49 L95.84375,49 L95.84375,48 C94.65625,47.7083333 93.8854167,47.3541667 93.53125,46.9375 C93.1770833,46.5208333 92.4479167,45.1145833 91.34375,42.71875 L91.34375,42.71875 L76.375,10.21875 C76,9.40625 75.8125,8.88541667 75.8125,8.65625 C75.8125,8.11458333 76.3229167,7.67708333 77.34375,7.34375 L77.34375,7.34375 L77.34375,6.34375 L66.96875,6.34375 L66.96875,7.34375 C67.9895833,7.61458333 68.5,8.02083333 68.5,8.5625 C68.5,8.85416667 68.3125,9.40625 67.9375,10.21875 L67.9375,10.21875 L52.3125,43.9375 C51.5833333,45.5416667 50.9947917,46.5833333 50.546875,47.0625 C50.0989583,47.5416667 49.4479167,47.8541667 48.59375,48 L48.59375,48 L48.59375,49 L58.09375,49 Z M81.53125,32.96875 L62.375,32.96875 L71.9375,11.90625 L81.53125,32.96875 Z M121.375,49.75 C127.625,49.75 132.53125,48.375 136.09375,45.625 C139.302083,43.1666667 140.90625,40.0104167 140.90625,36.15625 C140.90625,32.1145833 139.135417,29.1041667 135.59375,27.125 C134.260417,26.375 132.5625,25.8489583 130.5,25.546875 C128.4375,25.2447917 125.010417,25.0208333 120.21875,24.875 C116.760417,24.7708333 114.265625,24.6197917 112.734375,24.421875 C111.203125,24.2239583 109.875,23.8645833 108.75,23.34375 C107.729167,22.8854167 106.90625,22.1927083 106.28125,21.265625 C105.65625,20.3385417 105.34375,19.3541667 105.34375,18.3125 C105.34375,17.0625 105.744792,15.875 106.546875,14.75 C107.348958,13.625 108.4375,12.7083333 109.8125,12 C112.666667,10.5625 116.020833,9.84375 119.875,9.84375 C124.5625,9.84375 129,10.8229167 133.1875,12.78125 C134.729167,13.5104167 135.5,14.1875 135.5,14.8125 C135.5,15.0416667 135.322917,15.625 134.96875,16.5625 L134.96875,16.5625 L135.84375,17.03125 L140.3125,8.96875 L139.4375,8.53125 C138.791667,9.36458333 138.28125,9.78125 137.90625,9.78125 C137.739583,9.78125 137.3125,9.63541667 136.625,9.34375 C133.541667,7.96875 130.776042,7 128.328125,6.4375 C125.880208,5.875 123.229167,5.59375 120.375,5.59375 C116.875,5.59375 113.65625,6.046875 110.71875,6.953125 C107.78125,7.859375 105.479167,9.10416667 103.8125,10.6875 C101.5625,12.8541667 100.4375,15.4479167 100.4375,18.46875 C100.4375,20.2395833 100.869792,21.875 101.734375,23.375 C102.598958,24.875 103.770833,26.0416667 105.25,26.875 C106.833333,27.7708333 108.640625,28.4166667 110.671875,28.8125 C112.703125,29.2083333 115.510417,29.4791667 119.09375,29.625 C124.114583,29.8125 127.161458,29.953125 128.234375,30.046875 C129.307292,30.140625 130.34375,30.3645833 131.34375,30.71875 C134.447917,31.78125 136,33.7083333 136,36.5 C136,38.625 135.09375,40.4583333 133.28125,42 C130.552083,44.3125 126.552083,45.46875 121.28125,45.46875 C118.677083,45.46875 116.265625,45.1927083 114.046875,44.640625 C111.828125,44.0885417 109.520833,43.1875 107.125,41.9375 C104.458333,40.5416667 103.125,39.5104167 103.125,38.84375 C103.125,38.5520833 103.322917,37.9895833 103.71875,37.15625 L103.71875,37.15625 L102.84375,36.65625 L98.15625,44.5 L99,45.03125 C99.6666667,44.28125 100.15625,43.90625 100.46875,43.90625 C100.65625,43.90625 101.270833,44.1458333 102.3125,44.625 C106.041667,46.5833333 109.25,47.9270833 111.9375,48.65625 C114.625,49.3854167 117.770833,49.75 121.375,49.75 Z M157.0625,49 L157.0625,48 C156.25,47.7916667 155.713542,47.5104167 155.453125,47.15625 C155.192708,46.8020833 155.0625,46.1875 155.0625,45.3125 L155.0625,45.3125 L155.0625,29.09375 L184.28125,29.09375 L184.28125,45.3125 C184.28125,46.1875 184.145833,46.8020833 183.875,47.15625 C183.604167,47.5104167 183.072917,47.7916667 182.28125,48 L182.28125,48 L182.28125,49 L191.1875,49 L191.1875,48 C190.395833,47.7916667 189.864583,47.5052083 189.59375,47.140625 C189.322917,46.7760417 189.1875,46.1666667 189.1875,45.3125 L189.1875,45.3125 L189.1875,10.03125 C189.1875,9.15625 189.322917,8.54166667 189.59375,8.1875 C189.864583,7.83333333 190.395833,7.55208333 191.1875,7.34375 L191.1875,7.34375 L191.1875,6.34375 L182.28125,6.34375 L182.28125,7.34375 C183.072917,7.53125 183.604167,7.80729167 183.875,8.171875 C184.145833,8.53645833 184.28125,9.15625 184.28125,10.03125 L184.28125,10.03125 L184.28125,25.03125 L155.0625,25.03125 L155.0625,10.03125 C155.0625,9.15625 155.197917,8.54166667 155.46875,8.1875 C155.739583,7.83333333 156.270833,7.55208333 157.0625,7.34375 L157.0625,7.34375 L157.0625,6.34375 L148.15625,6.34375 L148.15625,7.34375 C148.947917,7.53125 149.479167,7.80729167 149.75,8.171875 C150.020833,8.53645833 150.15625,9.15625 150.15625,10.03125 L150.15625,10.03125 L150.15625,45.3125 C150.15625,46.1875 150.026042,46.8020833 149.765625,47.15625 C149.505208,47.5104167 148.96875,47.7916667 148.15625,48 L148.15625,48 L148.15625,49 L157.0625,49 Z M224.125,49.75 C227.854167,49.75 231.270833,49.21875 234.375,48.15625 C235.875,47.65625 237.255208,47.046875 238.515625,46.328125 C239.776042,45.609375 241.364583,44.53125 243.28125,43.09375 C243.84375,42.65625 244.239583,42.4375 244.46875,42.4375 C244.84375,42.4375 245.322917,42.6979167 245.90625,43.21875 L245.90625,43.21875 L246.6875,42.59375 L241.125,35.84375 L240.375,36.4375 C240.729167,37.1041667 240.90625,37.5833333 240.90625,37.875 C240.90625,38.4583333 239.989583,39.4479167 238.15625,40.84375 C234.09375,43.9479167 229.40625,45.5 224.09375,45.5 C218.65625,45.5 214.083333,43.8229167 210.375,40.46875 C206.541667,37.03125 204.625,32.7083333 204.625,27.5 C204.625,22.2708333 206.46875,18.0104167 210.15625,14.71875 C213.78125,11.4895833 218.510417,9.875 224.34375,9.875 C228.677083,9.875 232.677083,10.7708333 236.34375,12.5625 C239.010417,13.8541667 240.34375,14.9270833 240.34375,15.78125 C240.34375,16.1354167 240.25,16.625 240.0625,17.25 L240.0625,17.25 L240.90625,17.75 L245.53125,10.03125 L244.6875,9.5625 C243.979167,10.3541667 243.489583,10.75 243.21875,10.75 C243.072917,10.75 242.8125,10.6458333 242.4375,10.4375 C236.729167,7.20833333 230.822917,5.59375 224.71875,5.59375 C215.489583,5.59375 208.5625,8.53125 203.9375,14.40625 C200.979167,18.15625 199.5,22.59375 199.5,27.71875 C199.5,34.21875 201.864583,39.5625 206.59375,43.75 C211.09375,47.75 216.9375,49.75 224.125,49.75 Z M259.25,49 L259.25,48 C258.020833,47.7916667 257.40625,47.375 257.40625,46.75 C257.40625,46.4375 257.583333,45.8958333 257.9375,45.125 L257.9375,45.125 L261.6875,37.03125 L284.53125,37.03125 L288,44.6875 C288.458333,45.6458333 288.6875,46.2916667 288.6875,46.625 C288.6875,47.375 288.083333,47.8333333 286.875,48 L286.875,48 L286.875,49 L297,49 L297,48 C295.8125,47.7083333 295.041667,47.3541667 294.6875,46.9375 C294.333333,46.5208333 293.604167,45.1145833 292.5,42.71875 L292.5,42.71875 L277.53125,10.21875 C277.15625,9.40625 276.96875,8.88541667 276.96875,8.65625 C276.96875,8.11458333 277.479167,7.67708333 278.5,7.34375 L278.5,7.34375 L278.5,6.34375 L268.125,6.34375 L268.125,7.34375 C269.145833,7.61458333 269.65625,8.02083333 269.65625,8.5625 C269.65625,8.85416667 269.46875,9.40625 269.09375,10.21875 L269.09375,10.21875 L253.46875,43.9375 C252.739583,45.5416667 252.151042,46.5833333 251.703125,47.0625 C251.255208,47.5416667 250.604167,47.8541667 249.75,48 L249.75,48 L249.75,49 L259.25,49 Z M282.6875,32.96875 L263.53125,32.96875 L273.09375,11.90625 L282.6875,32.96875 Z M322.53125,49.75 C328.78125,49.75 333.6875,48.375 337.25,45.625 C340.458333,43.1666667 342.0625,40.0104167 342.0625,36.15625 C342.0625,32.1145833 340.291667,29.1041667 336.75,27.125 C335.416667,26.375 333.71875,25.8489583 331.65625,25.546875 C329.59375,25.2447917 326.166667,25.0208333 321.375,24.875 C317.916667,24.7708333 315.421875,24.6197917 313.890625,24.421875 C312.359375,24.2239583 311.03125,23.8645833 309.90625,23.34375 C308.885417,22.8854167 308.0625,22.1927083 307.4375,21.265625 C306.8125,20.3385417 306.5,19.3541667 306.5,18.3125 C306.5,17.0625 306.901042,15.875 307.703125,14.75 C308.505208,13.625 309.59375,12.7083333 310.96875,12 C313.822917,10.5625 317.177083,9.84375 321.03125,9.84375 C325.71875,9.84375 330.15625,10.8229167 334.34375,12.78125 C335.885417,13.5104167 336.65625,14.1875 336.65625,14.8125 C336.65625,15.0416667 336.479167,15.625 336.125,16.5625 L336.125,16.5625 L337,17.03125 L341.46875,8.96875 L340.59375,8.53125 C339.947917,9.36458333 339.4375,9.78125 339.0625,9.78125 C338.895833,9.78125 338.46875,9.63541667 337.78125,9.34375 C334.697917,7.96875 331.932292,7 329.484375,6.4375 C327.036458,5.875 324.385417,5.59375 321.53125,5.59375 C318.03125,5.59375 314.8125,6.046875 311.875,6.953125 C308.9375,7.859375 306.635417,9.10416667 304.96875,10.6875 C302.71875,12.8541667 301.59375,15.4479167 301.59375,18.46875 C301.59375,20.2395833 302.026042,21.875 302.890625,23.375 C303.755208,24.875 304.927083,26.0416667 306.40625,26.875 C307.989583,27.7708333 309.796875,28.4166667 311.828125,28.8125 C313.859375,29.2083333 316.666667,29.4791667 320.25,29.625 C325.270833,29.8125 328.317708,29.953125 329.390625,30.046875 C330.463542,30.140625 331.5,30.3645833 332.5,30.71875 C335.604167,31.78125 337.15625,33.7083333 337.15625,36.5 C337.15625,38.625 336.25,40.4583333 334.4375,42 C331.708333,44.3125 327.708333,45.46875 322.4375,45.46875 C319.833333,45.46875 317.421875,45.1927083 315.203125,44.640625 C312.984375,44.0885417 310.677083,43.1875 308.28125,41.9375 C305.614583,40.5416667 304.28125,39.5104167 304.28125,38.84375 C304.28125,38.5520833 304.479167,37.9895833 304.875,37.15625 L304.875,37.15625 L304,36.65625 L299.3125,44.5 L300.15625,45.03125 C300.822917,44.28125 301.3125,43.90625 301.625,43.90625 C301.8125,43.90625 302.427083,44.1458333 303.46875,44.625 C307.197917,46.5833333 310.40625,47.9270833 313.09375,48.65625 C315.78125,49.3854167 318.927083,49.75 322.53125,49.75 Z M358.21875,49 L358.21875,48 C357.40625,47.7916667 356.869792,47.5104167 356.609375,47.15625 C356.348958,46.8020833 356.21875,46.1875 356.21875,45.3125 L356.21875,45.3125 L356.21875,29.09375 L385.4375,29.09375 L385.4375,45.3125 C385.4375,46.1875 385.302083,46.8020833 385.03125,47.15625 C384.760417,47.5104167 384.229167,47.7916667 383.4375,48 L383.4375,48 L383.4375,49 L392.34375,49 L392.34375,48 C391.552083,47.7916667 391.020833,47.5052083 390.75,47.140625 C390.479167,46.7760417 390.34375,46.1666667 390.34375,45.3125 L390.34375,45.3125 L390.34375,10.03125 C390.34375,9.15625 390.479167,8.54166667 390.75,8.1875 C391.020833,7.83333333 391.552083,7.55208333 392.34375,7.34375 L392.34375,7.34375 L392.34375,6.34375 L383.4375,6.34375 L383.4375,7.34375 C384.229167,7.53125 384.760417,7.80729167 385.03125,8.171875 C385.302083,8.53645833 385.4375,9.15625 385.4375,10.03125 L385.4375,10.03125 L385.4375,25.03125 L356.21875,25.03125 L356.21875,10.03125 C356.21875,9.15625 356.354167,8.54166667 356.625,8.1875 C356.895833,7.83333333 357.427083,7.55208333 358.21875,7.34375 L358.21875,7.34375 L358.21875,6.34375 L349.3125,6.34375 L349.3125,7.34375 C350.104167,7.53125 350.635417,7.80729167 350.90625,8.171875 C351.177083,8.53645833 351.3125,9.15625 351.3125,10.03125 L351.3125,10.03125 L351.3125,45.3125 C351.3125,46.1875 351.182292,46.8020833 350.921875,47.15625 C350.661458,47.5104167 350.125,47.7916667 349.3125,48 L349.3125,48 L349.3125,49 L358.21875,49 Z" id="HASHCASH" fill="#FFFFFF" fill-rule="nonzero"></path>
                </g>
            </g>
        </g>
    </g>
</svg>