<?xml version="1.0" encoding="UTF-8"?>
<svg width="92px" height="25px" viewBox="0 0 92 25" version="1.1" xmlns="http://www.w3.org/2000/svg" xmlns:xlink="http://www.w3.org/1999/xlink">
    <title>Slice 1</title>
    <g id="Page-1" stroke="none" stroke-width="1" fill="none" fill-rule="evenodd">
        <g id="Synthetix-big-logo" fill="#FFFFFF" fill-rule="nonzero">
            <g id="HASHCASH" transform="translate(0.217184, 0.000000)">
                <path d="M2.26812818,9.89473684 L2.26812818,9.67105263 C2.08063749,9.62445175 1.95684556,9.56154057 1.89675241,9.48231907 C1.83665924,9.40309758 1.80661266,9.26562501 1.80661266,9.06990131 L1.80661266,9.06990131 L1.80661266,5.44202303 L8.54906585,5.44202303 L8.54906585,9.06990131 C8.54906585,9.26562501 8.5178174,9.40309758 8.45532051,9.48231907 C8.39282362,9.56154057 8.27023357,9.62445175 8.08755033,9.67105263 L8.08755033,9.67105263 L8.08755033,9.89473684 L10.1427366,9.89473684 L10.1427366,9.67105263 C9.96005338,9.62445175 9.83746333,9.56037556 9.77496644,9.47882402 C9.71246955,9.39727248 9.6812211,9.26096491 9.6812211,9.06990131 L9.6812211,9.06990131 L9.6812211,1.17804276 C9.6812211,0.982319078 9.71246955,0.844846491 9.77496644,0.765625 C9.83746333,0.686403509 9.96005338,0.623492324 10.1427366,0.576891448 L10.1427366,0.576891448 L10.1427366,0.353207238 L8.08755033,0.353207238 L8.08755033,0.576891448 C8.27023357,0.618832236 8.39282362,0.6805784 8.45532051,0.762129935 C8.5178174,0.843681469 8.54906585,0.982319078 8.54906585,1.17804276 L8.54906585,1.17804276 L8.54906585,4.53330592 L1.80661266,4.53330592 L1.80661266,1.17804276 C1.80661266,0.982319078 1.8378611,0.844846491 1.900358,0.765625 C1.96285488,0.686403509 2.08544494,0.623492324 2.26812818,0.576891448 L2.26812818,0.576891448 L2.26812818,0.353207238 L0.2129419,0.353207238 L0.2129419,0.576891448 C0.395625124,0.618832236 0.518215183,0.6805784 0.580712074,0.762129935 C0.643208967,0.843681469 0.674457413,0.982319078 0.674457413,1.17804276 L0.674457413,1.17804276 L0.674457413,9.06990131 C0.674457413,9.26562501 0.644410832,9.40309758 0.584317665,9.48231907 C0.524224499,9.56154057 0.400432578,9.62445175 0.2129419,9.67105263 L0.2129419,9.67105263 L0.2129419,9.89473684 L2.26812818,9.89473684 Z M13.4598794,9.89473684 L13.4598794,9.67105263 C13.1762396,9.62445175 13.0344197,9.53125 13.0344197,9.39144737 C13.0344197,9.32154606 13.0752831,9.20038377 13.1570098,9.02796053 L13.1570098,9.02796053 L14.0223514,7.21751644 L19.2937239,7.21751644 L20.0941649,8.93009869 C20.1999288,9.14446272 20.2528108,9.28892543 20.2528108,9.36348684 C20.2528108,9.53125 20.1133947,9.63377194 19.8345624,9.67105263 L19.8345624,9.67105263 L19.8345624,9.89473684 L22.1709846,9.89473684 L22.1709846,9.67105263 C21.8969599,9.60581141 21.719084,9.52658992 21.6373573,9.43338817 C21.5556306,9.3401864 21.3873698,9.02563048 21.1325748,8.4897204 L21.1325748,8.4897204 L17.6784196,1.21998355 C17.5918854,1.03824013 17.5486184,0.921737939 17.5486184,0.870476973 C17.5486184,0.749314693 17.666401,0.651452851 17.9019662,0.576891448 L17.9019662,0.576891448 L17.9019662,0.353207238 L15.5078545,0.353207238 L15.5078545,0.576891448 C15.7434197,0.637472587 15.8612023,0.728344299 15.8612023,0.849506579 C15.8612023,0.914747806 15.8179352,1.03824013 15.731401,1.21998355 L15.731401,1.21998355 L12.1258111,8.76233554 C11.9575502,9.12116227 11.8217397,9.35416667 11.7183794,9.46134867 C11.6150192,9.56853069 11.4647863,9.63843202 11.2676807,9.67105263 L11.2676807,9.67105263 L11.2676807,9.89473684 L13.4598794,9.89473684 Z M18.8682643,6.30879935 L14.447811,6.30879935 L16.6544321,1.59745066 L18.8682643,6.30879935 Z M28.0625188,10.0625 C29.5047545,10.0625 30.6369098,9.75493421 31.4589843,9.13980263 C32.1993323,8.58991227 32.5695062,7.88390899 32.5695062,7.02179276 C32.5695062,6.11773575 32.1608725,5.44435307 31.3436054,5.00164474 C31.0359286,4.83388158 30.644121,4.71621436 30.1681832,4.64864309 C29.6922454,4.58107181 28.9014193,4.53097587 27.795705,4.49835526 C26.9976678,4.47505482 26.4219753,4.44126918 26.0686273,4.39699836 C25.7152795,4.35272752 25.4088046,4.27234101 25.149202,4.15583882 C24.9136368,4.05331688 24.7237424,3.89836897 24.5795187,3.69099507 C24.4352952,3.48362116 24.3631833,3.26343202 24.3631833,3.03042762 C24.3631833,2.75082236 24.4557268,2.48519737 24.6408139,2.23355263 C24.8259007,1.98190789 25.0770902,1.77686404 25.394382,1.61842105 C26.0530031,1.296875 26.8270031,1.13610197 27.7163821,1.13610197 C28.7980589,1.13610197 29.8220465,1.3551261 30.7883447,1.79317434 C31.1440963,1.95627741 31.321972,2.10773027 31.321972,2.24753288 C31.321972,2.29879385 31.2811086,2.42927632 31.1993819,2.63898025 L31.1993819,2.63898025 L31.4012949,2.74383223 L32.4324936,0.940378291 L32.2305807,0.842516446 C32.0815496,1.02891996 31.9637669,1.12212171 31.8772329,1.12212171 C31.8387731,1.12212171 31.7402203,1.0895011 31.5815743,1.02425987 C30.8700714,0.71669408 30.2318819,0.5 29.6670062,0.374177632 C29.1021303,0.248355263 28.4903821,0.185444079 27.831761,0.185444079 C27.0241088,0.185444079 26.2813573,0.286800987 25.6035063,0.489514802 C24.9256554,0.692228619 24.3944319,0.970668859 24.0098355,1.32483553 C23.4906305,1.80948465 23.2310282,2.38966558 23.2310282,3.06537829 C23.2310282,3.46148575 23.3307828,3.82730263 23.530292,4.16282895 C23.7298013,4.49835526 24.0002205,4.75932017 24.3415498,4.94572368 C24.7069163,5.14610745 25.1239628,5.29057017 25.5926895,5.37911183 C26.0614162,5.46765352 26.7092206,5.52823465 27.5361024,5.56085526 C28.6946988,5.60279604 29.3977887,5.63425164 29.6453725,5.65522204 C29.8929564,5.67619244 30.1321272,5.72628838 30.3628849,5.80550987 C31.0791955,6.04317434 31.4373508,6.47423246 31.4373508,7.09868421 C31.4373508,7.57401316 31.2282265,7.98410088 30.8099782,8.32894737 C30.1802019,8.84621709 29.2571709,9.10485198 28.0408851,9.10485198 C27.4399534,9.10485198 26.8834908,9.04310581 26.371497,8.91961349 C25.8595032,8.79612116 25.3270776,8.59457238 24.7742205,8.31496712 C24.1588666,8.00274122 23.8511895,7.77206688 23.8511895,7.62294408 C23.8511895,7.55770284 23.8968604,7.43188048 23.988202,7.24547697 L23.988202,7.24547697 L23.7862889,7.13363486 L22.7046121,8.88815789 L22.8993138,9.00699013 C23.0531523,8.83922697 23.1661276,8.75534539 23.2382393,8.75534539 C23.2815065,8.75534539 23.4233262,8.8089364 23.6636989,8.91611842 C24.5242331,9.35416667 25.2645808,9.65474232 25.8847424,9.81784539 C26.5049037,9.98094846 27.2308291,10.0625 28.0625188,10.0625 Z M36.297686,9.89473684 L36.297686,9.67105263 C36.1101954,9.62445175 35.9864035,9.56154057 35.9263103,9.48231907 C35.8662172,9.40309758 35.8361705,9.26562501 35.8361705,9.06990131 L35.8361705,9.06990131 L35.8361705,5.44202303 L42.5786237,5.44202303 L42.5786237,9.06990131 C42.5786237,9.26562501 42.5473753,9.40309758 42.4848785,9.48231907 C42.4223815,9.56154057 42.2997915,9.62445175 42.1171082,9.67105263 L42.1171082,9.67105263 L42.1171082,9.89473684 L44.1722946,9.89473684 L44.1722946,9.67105263 C43.9896113,9.62445175 43.8670213,9.56037556 43.8045243,9.47882402 C43.7420275,9.39727248 43.7107791,9.26096491 43.7107791,9.06990131 L43.7107791,9.06990131 L43.7107791,1.17804276 C43.7107791,0.982319078 43.7420275,0.844846491 43.8045243,0.765625 C43.8670213,0.686403509 43.9896113,0.623492324 44.1722946,0.576891448 L44.1722946,0.576891448 L44.1722946,0.353207238 L42.1171082,0.353207238 L42.1171082,0.576891448 C42.2997915,0.618832236 42.4223815,0.6805784 42.4848785,0.762129935 C42.5473753,0.843681469 42.5786237,0.982319078 42.5786237,1.17804276 L42.5786237,1.17804276 L42.5786237,4.53330592 L35.8361705,4.53330592 L35.8361705,1.17804276 C35.8361705,0.982319078 35.8674189,0.844846491 35.9299159,0.765625 C35.9924127,0.686403509 36.1150028,0.623492324 36.297686,0.576891448 L36.297686,0.576891448 L36.297686,0.353207238 L34.2424999,0.353207238 L34.2424999,0.576891448 C34.4251829,0.618832236 34.5477732,0.6805784 34.61027,0.762129935 C34.6727668,0.843681469 34.7040154,0.982319078 34.7040154,1.17804276 L34.7040154,1.17804276 L34.7040154,9.06990131 C34.7040154,9.26562501 34.6739687,9.40309758 34.6138757,9.48231907 C34.5537824,9.56154057 34.4299905,9.62445175 34.2424999,9.67105263 L34.2424999,9.67105263 L34.2424999,9.89473684 L36.297686,9.89473684 Z M51.772878,10.0625 C52.6334122,10.0625 53.4218345,9.94366777 54.1381452,9.70600328 C54.4842819,9.59416118 54.8027756,9.45785362 55.0936266,9.29708059 C55.3844773,9.13630756 55.7510458,8.89514802 56.1933314,8.57360198 C56.3231326,8.47574013 56.4144742,8.42680922 56.4673563,8.42680922 C56.5538903,8.42680922 56.6644618,8.48506032 56.7990706,8.60156251 L56.7990706,8.60156251 L56.9793501,8.46175987 L55.6957599,6.95189145 L55.5226918,7.08470396 C55.6044185,7.23382676 55.6452818,7.34100878 55.6452818,7.40625 C55.6452818,7.53673246 55.4337537,7.75808663 55.010698,8.07031251 C54.0732444,8.76466558 52.9915676,9.11184211 51.7656669,9.11184211 C50.5109217,9.11184211 49.4556857,8.73670505 48.5999591,7.98643093 C47.7153876,7.21751644 47.2731018,6.25054825 47.2731018,5.08552632 C47.2731018,3.91584429 47.6985615,2.96285636 48.5494808,2.22656251 C49.3859776,1.5042489 50.4772695,1.14309211 51.8233563,1.14309211 C52.8233067,1.14309211 53.7463377,1.34347588 54.5924494,1.74424342 C55.2078036,2.03316886 55.5154804,2.27316337 55.5154804,2.46422697 C55.5154804,2.54344846 55.493847,2.65296053 55.4505798,2.79276316 L55.4505798,2.79276316 L55.6452818,2.90460526 L56.7125363,1.17804276 L56.5178346,1.07319079 C56.3543812,1.25027412 56.2414059,1.33881579 56.1789091,1.33881579 C56.1452569,1.33881579 56.0851637,1.31551535 55.9986296,1.26891447 C54.6813874,0.546600878 53.3184744,0.185444079 51.9098906,0.185444079 C49.7801887,0.185444079 48.1817105,0.842516446 47.114456,2.15666118 C46.4317976,2.99547697 46.0904684,3.98807566 46.0904684,5.13445724 C46.0904684,6.58840461 46.6361144,7.78371709 47.7274061,8.72039474 C48.765816,9.61513158 50.1143068,10.0625 51.772878,10.0625 Z M59.8782443,9.89473684 L59.8782443,9.67105263 C59.5946045,9.62445175 59.4527848,9.53125 59.4527848,9.39144737 C59.4527848,9.32154606 59.4936481,9.20038377 59.5753748,9.02796053 L59.5753748,9.02796053 L60.4407164,7.21751644 L65.7120888,7.21751644 L66.5125298,8.93009869 C66.6182938,9.14446272 66.6711758,9.28892543 66.6711758,9.36348684 C66.6711758,9.53125 66.5317597,9.63377194 66.2529275,9.67105263 L66.2529275,9.67105263 L66.2529275,9.89473684 L68.5893496,9.89473684 L68.5893496,9.67105263 C68.3153248,9.60581141 68.1374491,9.52658992 68.0557224,9.43338817 C67.9739957,9.3401864 67.8057347,9.02563048 67.5509397,8.4897204 L67.5509397,8.4897204 L64.0967845,1.21998355 C64.0102505,1.03824013 63.9669834,0.921737939 63.9669834,0.870476973 C63.9669834,0.749314693 64.084766,0.651452851 64.3203311,0.576891448 L64.3203311,0.576891448 L64.3203311,0.353207238 L61.9262193,0.353207238 L61.9262193,0.576891448 C62.1617846,0.637472587 62.2795673,0.728344299 62.2795673,0.849506579 C62.2795673,0.914747806 62.2363002,1.03824013 62.1497659,1.21998355 L62.1497659,1.21998355 L58.5441761,8.76233554 C58.3759151,9.12116227 58.2401047,9.35416667 58.1367443,9.46134867 C58.0333842,9.56853069 57.8831512,9.63843202 57.6860456,9.67105263 L57.6860456,9.67105263 L57.6860456,9.89473684 L59.8782443,9.89473684 Z M65.2866293,6.30879935 L60.8661759,6.30879935 L63.0727969,1.59745066 L65.2866293,6.30879935 Z M74.4808836,10.0625 C75.9231196,10.0625 77.0552749,9.75493421 77.8773493,9.13980263 C78.6176971,8.58991227 78.987871,7.88390899 78.987871,7.02179276 C78.987871,6.11773575 78.5792376,5.44435307 77.7619705,5.00164474 C77.4542934,4.83388158 77.062486,4.71621436 76.5865482,4.64864309 C76.1106102,4.58107181 75.3197841,4.53097587 74.2140701,4.49835526 C73.4160326,4.47505482 72.8403401,4.44126918 72.4869924,4.39699836 C72.1336446,4.35272752 71.8271694,4.27234101 71.567567,4.15583882 C71.3320017,4.05331688 71.1421073,3.89836897 70.9978838,3.69099507 C70.8536601,3.48362116 70.7815483,3.26343202 70.7815483,3.03042762 C70.7815483,2.75082236 70.8740919,2.48519737 71.0591787,2.23355263 C71.2442657,1.98190789 71.4954551,1.77686404 71.8127471,1.61842105 C72.4713682,1.296875 73.2453681,1.13610197 74.134747,1.13610197 C75.216424,1.13610197 76.2404116,1.3551261 77.2067095,1.79317434 C77.5624611,1.95627741 77.740337,2.10773027 77.740337,2.24753288 C77.740337,2.29879385 77.6994737,2.42927632 77.6177468,2.63898025 L77.6177468,2.63898025 L77.8196599,2.74383223 L78.8508587,0.940378291 L78.6489455,0.842516446 C78.4999144,1.02891996 78.382132,1.12212171 78.2955977,1.12212171 C78.2571382,1.12212171 78.1585854,1.0895011 77.9999394,1.02425987 C77.2884362,0.71669408 76.6502469,0.5 76.085371,0.374177632 C75.5204954,0.248355263 74.9087469,0.185444079 74.2501258,0.185444079 C73.4424737,0.185444079 72.6997221,0.286800987 72.0218714,0.489514802 C71.3440204,0.692228619 70.8127967,0.970668859 70.4282005,1.32483553 C69.9089956,1.80948465 69.649393,2.38966558 69.649393,3.06537829 C69.649393,3.46148575 69.7491477,3.82730263 69.948657,4.16282895 C70.1481664,4.49835526 70.4185856,4.75932017 70.7599149,4.94572368 C71.1252812,5.14610745 71.5423279,5.29057017 72.0110545,5.37911183 C72.4797812,5.46765352 73.1275854,5.52823465 73.9544675,5.56085526 C75.1130636,5.60279604 75.8161537,5.63425164 76.0637376,5.65522204 C76.3113214,5.67619244 76.5504922,5.72628838 76.78125,5.80550987 C77.4975605,6.04317434 77.8557159,6.47423246 77.8557159,7.09868421 C77.8557159,7.57401316 77.6465916,7.98410088 77.2283432,8.32894737 C76.5985667,8.84621709 75.6755357,9.10485198 74.4592501,9.10485198 C73.8583185,9.10485198 73.3018557,9.04310581 72.7898619,8.91961349 C72.2778681,8.79612116 71.7454427,8.59457238 71.1925856,8.31496712 C70.5772316,8.00274122 70.2695545,7.77206688 70.2695545,7.62294408 C70.2695545,7.55770284 70.3152255,7.43188048 70.4065671,7.24547697 L70.4065671,7.24547697 L70.2046539,7.13363486 L69.1229769,8.88815789 L69.3176789,9.00699013 C69.4715173,8.83922697 69.5844924,8.75534539 69.6566042,8.75534539 C69.6998713,8.75534539 69.8416912,8.8089364 70.0820639,8.91611842 C70.9425979,9.35416667 71.6829459,9.65474232 72.3031072,9.81784539 C72.9232687,9.98094846 73.6491942,10.0625 74.4808836,10.0625 Z M82.7160511,9.89473684 L82.7160511,9.67105263 C82.5285605,9.62445175 82.4047685,9.56154057 82.3446753,9.48231907 C82.2845821,9.40309758 82.2545356,9.26562501 82.2545356,9.06990131 L82.2545356,9.06990131 L82.2545356,5.44202303 L88.9969888,5.44202303 L88.9969888,9.06990131 C88.9969888,9.26562501 88.9657404,9.40309758 88.9032434,9.48231907 C88.8407466,9.56154057 88.7181565,9.62445175 88.5354733,9.67105263 L88.5354733,9.67105263 L88.5354733,9.89473684 L90.5906594,9.89473684 L90.5906594,9.67105263 C90.4079764,9.62445175 90.2853861,9.56037556 90.2228893,9.47882402 C90.1603925,9.39727248 90.1291439,9.26096491 90.1291439,9.06990131 L90.1291439,9.06990131 L90.1291439,1.17804276 C90.1291439,0.982319078 90.1603925,0.844846491 90.2228893,0.765625 C90.2853861,0.686403509 90.4079764,0.623492324 90.5906594,0.576891448 L90.5906594,0.576891448 L90.5906594,0.353207238 L88.5354733,0.353207238 L88.5354733,0.576891448 C88.7181565,0.618832236 88.8407466,0.6805784 88.9032434,0.762129935 C88.9657404,0.843681469 88.9969888,0.982319078 88.9969888,1.17804276 L88.9969888,1.17804276 L88.9969888,4.53330592 L82.2545356,4.53330592 L82.2545356,1.17804276 C82.2545356,0.982319078 82.285784,0.844846491 82.3482808,0.765625 C82.4107778,0.686403509 82.5333678,0.623492324 82.7160511,0.576891448 L82.7160511,0.576891448 L82.7160511,0.353207238 L80.6608647,0.353207238 L80.6608647,0.576891448 C80.843548,0.618832236 80.966138,0.6805784 81.028635,0.762129935 C81.0911318,0.843681469 81.1223802,0.982319078 81.1223802,1.17804276 L81.1223802,1.17804276 L81.1223802,9.06990131 C81.1223802,9.26562501 81.0923337,9.40309758 81.0322405,9.48231907 C80.9721473,9.56154057 80.8483554,9.62445175 80.6608647,9.67105263 L80.6608647,9.67105263 L80.6608647,9.89473684 L82.7160511,9.89473684 Z" id="path-1"></path>
                <path d="M2.26812818,9.89473684 L2.26812818,9.67105263 C2.08063749,9.62445175 1.95684556,9.56154057 1.89675241,9.48231907 C1.83665924,9.40309758 1.80661266,9.26562501 1.80661266,9.06990131 L1.80661266,9.06990131 L1.80661266,5.44202303 L8.54906585,5.44202303 L8.54906585,9.06990131 C8.54906585,9.26562501 8.5178174,9.40309758 8.45532051,9.48231907 C8.39282362,9.56154057 8.27023357,9.62445175 8.08755033,9.67105263 L8.08755033,9.67105263 L8.08755033,9.89473684 L10.1427366,9.89473684 L10.1427366,9.67105263 C9.96005338,9.62445175 9.83746333,9.56037556 9.77496644,9.47882402 C9.71246955,9.39727248 9.6812211,9.26096491 9.6812211,9.06990131 L9.6812211,9.06990131 L9.6812211,1.17804276 C9.6812211,0.982319078 9.71246955,0.844846491 9.77496644,0.765625 C9.83746333,0.686403509 9.96005338,0.623492324 10.1427366,0.576891448 L10.1427366,0.576891448 L10.1427366,0.353207238 L8.08755033,0.353207238 L8.08755033,0.576891448 C8.27023357,0.618832236 8.39282362,0.6805784 8.45532051,0.762129935 C8.5178174,0.843681469 8.54906585,0.982319078 8.54906585,1.17804276 L8.54906585,1.17804276 L8.54906585,4.53330592 L1.80661266,4.53330592 L1.80661266,1.17804276 C1.80661266,0.982319078 1.8378611,0.844846491 1.900358,0.765625 C1.96285488,0.686403509 2.08544494,0.623492324 2.26812818,0.576891448 L2.26812818,0.576891448 L2.26812818,0.353207238 L0.2129419,0.353207238 L0.2129419,0.576891448 C0.395625124,0.618832236 0.518215183,0.6805784 0.580712074,0.762129935 C0.643208967,0.843681469 0.674457413,0.982319078 0.674457413,1.17804276 L0.674457413,1.17804276 L0.674457413,9.06990131 C0.674457413,9.26562501 0.644410832,9.40309758 0.584317665,9.48231907 C0.524224499,9.56154057 0.400432578,9.62445175 0.2129419,9.67105263 L0.2129419,9.67105263 L0.2129419,9.89473684 L2.26812818,9.89473684 Z M13.4598794,9.89473684 L13.4598794,9.67105263 C13.1762396,9.62445175 13.0344197,9.53125 13.0344197,9.39144737 C13.0344197,9.32154606 13.0752831,9.20038377 13.1570098,9.02796053 L13.1570098,9.02796053 L14.0223514,7.21751644 L19.2937239,7.21751644 L20.0941649,8.93009869 C20.1999288,9.14446272 20.2528108,9.28892543 20.2528108,9.36348684 C20.2528108,9.53125 20.1133947,9.63377194 19.8345624,9.67105263 L19.8345624,9.67105263 L19.8345624,9.89473684 L22.1709846,9.89473684 L22.1709846,9.67105263 C21.8969599,9.60581141 21.719084,9.52658992 21.6373573,9.43338817 C21.5556306,9.3401864 21.3873698,9.02563048 21.1325748,8.4897204 L21.1325748,8.4897204 L17.6784196,1.21998355 C17.5918854,1.03824013 17.5486184,0.921737939 17.5486184,0.870476973 C17.5486184,0.749314693 17.666401,0.651452851 17.9019662,0.576891448 L17.9019662,0.576891448 L17.9019662,0.353207238 L15.5078545,0.353207238 L15.5078545,0.576891448 C15.7434197,0.637472587 15.8612023,0.728344299 15.8612023,0.849506579 C15.8612023,0.914747806 15.8179352,1.03824013 15.731401,1.21998355 L15.731401,1.21998355 L12.1258111,8.76233554 C11.9575502,9.12116227 11.8217397,9.35416667 11.7183794,9.46134867 C11.6150192,9.56853069 11.4647863,9.63843202 11.2676807,9.67105263 L11.2676807,9.67105263 L11.2676807,9.89473684 L13.4598794,9.89473684 Z M18.8682643,6.30879935 L14.447811,6.30879935 L16.6544321,1.59745066 L18.8682643,6.30879935 Z M28.0625188,10.0625 C29.5047545,10.0625 30.6369098,9.75493421 31.4589843,9.13980263 C32.1993323,8.58991227 32.5695062,7.88390899 32.5695062,7.02179276 C32.5695062,6.11773575 32.1608725,5.44435307 31.3436054,5.00164474 C31.0359286,4.83388158 30.644121,4.71621436 30.1681832,4.64864309 C29.6922454,4.58107181 28.9014193,4.53097587 27.795705,4.49835526 C26.9976678,4.47505482 26.4219753,4.44126918 26.0686273,4.39699836 C25.7152795,4.35272752 25.4088046,4.27234101 25.149202,4.15583882 C24.9136368,4.05331688 24.7237424,3.89836897 24.5795187,3.69099507 C24.4352952,3.48362116 24.3631833,3.26343202 24.3631833,3.03042762 C24.3631833,2.75082236 24.4557268,2.48519737 24.6408139,2.23355263 C24.8259007,1.98190789 25.0770902,1.77686404 25.394382,1.61842105 C26.0530031,1.296875 26.8270031,1.13610197 27.7163821,1.13610197 C28.7980589,1.13610197 29.8220465,1.3551261 30.7883447,1.79317434 C31.1440963,1.95627741 31.321972,2.10773027 31.321972,2.24753288 C31.321972,2.29879385 31.2811086,2.42927632 31.1993819,2.63898025 L31.1993819,2.63898025 L31.4012949,2.74383223 L32.4324936,0.940378291 L32.2305807,0.842516446 C32.0815496,1.02891996 31.9637669,1.12212171 31.8772329,1.12212171 C31.8387731,1.12212171 31.7402203,1.0895011 31.5815743,1.02425987 C30.8700714,0.71669408 30.2318819,0.5 29.6670062,0.374177632 C29.1021303,0.248355263 28.4903821,0.185444079 27.831761,0.185444079 C27.0241088,0.185444079 26.2813573,0.286800987 25.6035063,0.489514802 C24.9256554,0.692228619 24.3944319,0.970668859 24.0098355,1.32483553 C23.4906305,1.80948465 23.2310282,2.38966558 23.2310282,3.06537829 C23.2310282,3.46148575 23.3307828,3.82730263 23.530292,4.16282895 C23.7298013,4.49835526 24.0002205,4.75932017 24.3415498,4.94572368 C24.7069163,5.14610745 25.1239628,5.29057017 25.5926895,5.37911183 C26.0614162,5.46765352 26.7092206,5.52823465 27.5361024,5.56085526 C28.6946988,5.60279604 29.3977887,5.63425164 29.6453725,5.65522204 C29.8929564,5.67619244 30.1321272,5.72628838 30.3628849,5.80550987 C31.0791955,6.04317434 31.4373508,6.47423246 31.4373508,7.09868421 C31.4373508,7.57401316 31.2282265,7.98410088 30.8099782,8.32894737 C30.1802019,8.84621709 29.2571709,9.10485198 28.0408851,9.10485198 C27.4399534,9.10485198 26.8834908,9.04310581 26.371497,8.91961349 C25.8595032,8.79612116 25.3270776,8.59457238 24.7742205,8.31496712 C24.1588666,8.00274122 23.8511895,7.77206688 23.8511895,7.62294408 C23.8511895,7.55770284 23.8968604,7.43188048 23.988202,7.24547697 L23.988202,7.24547697 L23.7862889,7.13363486 L22.7046121,8.88815789 L22.8993138,9.00699013 C23.0531523,8.83922697 23.1661276,8.75534539 23.2382393,8.75534539 C23.2815065,8.75534539 23.4233262,8.8089364 23.6636989,8.91611842 C24.5242331,9.35416667 25.2645808,9.65474232 25.8847424,9.81784539 C26.5049037,9.98094846 27.2308291,10.0625 28.0625188,10.0625 Z M36.297686,9.89473684 L36.297686,9.67105263 C36.1101954,9.62445175 35.9864035,9.56154057 35.9263103,9.48231907 C35.8662172,9.40309758 35.8361705,9.26562501 35.8361705,9.06990131 L35.8361705,9.06990131 L35.8361705,5.44202303 L42.5786237,5.44202303 L42.5786237,9.06990131 C42.5786237,9.26562501 42.5473753,9.40309758 42.4848785,9.48231907 C42.4223815,9.56154057 42.2997915,9.62445175 42.1171082,9.67105263 L42.1171082,9.67105263 L42.1171082,9.89473684 L44.1722946,9.89473684 L44.1722946,9.67105263 C43.9896113,9.62445175 43.8670213,9.56037556 43.8045243,9.47882402 C43.7420275,9.39727248 43.7107791,9.26096491 43.7107791,9.06990131 L43.7107791,9.06990131 L43.7107791,1.17804276 C43.7107791,0.982319078 43.7420275,0.844846491 43.8045243,0.765625 C43.8670213,0.686403509 43.9896113,0.623492324 44.1722946,0.576891448 L44.1722946,0.576891448 L44.1722946,0.353207238 L42.1171082,0.353207238 L42.1171082,0.576891448 C42.2997915,0.618832236 42.4223815,0.6805784 42.4848785,0.762129935 C42.5473753,0.843681469 42.5786237,0.982319078 42.5786237,1.17804276 L42.5786237,1.17804276 L42.5786237,4.53330592 L35.8361705,4.53330592 L35.8361705,1.17804276 C35.8361705,0.982319078 35.8674189,0.844846491 35.9299159,0.765625 C35.9924127,0.686403509 36.1150028,0.623492324 36.297686,0.576891448 L36.297686,0.576891448 L36.297686,0.353207238 L34.2424999,0.353207238 L34.2424999,0.576891448 C34.4251829,0.618832236 34.5477732,0.6805784 34.61027,0.762129935 C34.6727668,0.843681469 34.7040154,0.982319078 34.7040154,1.17804276 L34.7040154,1.17804276 L34.7040154,9.06990131 C34.7040154,9.26562501 34.6739687,9.40309758 34.6138757,9.48231907 C34.5537824,9.56154057 34.4299905,9.62445175 34.2424999,9.67105263 L34.2424999,9.67105263 L34.2424999,9.89473684 L36.297686,9.89473684 Z M51.772878,10.0625 C52.6334122,10.0625 53.4218345,9.94366777 54.1381452,9.70600328 C54.4842819,9.59416118 54.8027756,9.45785362 55.0936266,9.29708059 C55.3844773,9.13630756 55.7510458,8.89514802 56.1933314,8.57360198 C56.3231326,8.47574013 56.4144742,8.42680922 56.4673563,8.42680922 C56.5538903,8.42680922 56.6644618,8.48506032 56.7990706,8.60156251 L56.7990706,8.60156251 L56.9793501,8.46175987 L55.6957599,6.95189145 L55.5226918,7.08470396 C55.6044185,7.23382676 55.6452818,7.34100878 55.6452818,7.40625 C55.6452818,7.53673246 55.4337537,7.75808663 55.010698,8.07031251 C54.0732444,8.76466558 52.9915676,9.11184211 51.7656669,9.11184211 C50.5109217,9.11184211 49.4556857,8.73670505 48.5999591,7.98643093 C47.7153876,7.21751644 47.2731018,6.25054825 47.2731018,5.08552632 C47.2731018,3.91584429 47.6985615,2.96285636 48.5494808,2.22656251 C49.3859776,1.5042489 50.4772695,1.14309211 51.8233563,1.14309211 C52.8233067,1.14309211 53.7463377,1.34347588 54.5924494,1.74424342 C55.2078036,2.03316886 55.5154804,2.27316337 55.5154804,2.46422697 C55.5154804,2.54344846 55.493847,2.65296053 55.4505798,2.79276316 L55.4505798,2.79276316 L55.6452818,2.90460526 L56.7125363,1.17804276 L56.5178346,1.07319079 C56.3543812,1.25027412 56.2414059,1.33881579 56.1789091,1.33881579 C56.1452569,1.33881579 56.0851637,1.31551535 55.9986296,1.26891447 C54.6813874,0.546600878 53.3184744,0.185444079 51.9098906,0.185444079 C49.7801887,0.185444079 48.1817105,0.842516446 47.114456,2.15666118 C46.4317976,2.99547697 46.0904684,3.98807566 46.0904684,5.13445724 C46.0904684,6.58840461 46.6361144,7.78371709 47.7274061,8.72039474 C48.765816,9.61513158 50.1143068,10.0625 51.772878,10.0625 Z M59.8782443,9.89473684 L59.8782443,9.67105263 C59.5946045,9.62445175 59.4527848,9.53125 59.4527848,9.39144737 C59.4527848,9.32154606 59.4936481,9.20038377 59.5753748,9.02796053 L59.5753748,9.02796053 L60.4407164,7.21751644 L65.7120888,7.21751644 L66.5125298,8.93009869 C66.6182938,9.14446272 66.6711758,9.28892543 66.6711758,9.36348684 C66.6711758,9.53125 66.5317597,9.63377194 66.2529275,9.67105263 L66.2529275,9.67105263 L66.2529275,9.89473684 L68.5893496,9.89473684 L68.5893496,9.67105263 C68.3153248,9.60581141 68.1374491,9.52658992 68.0557224,9.43338817 C67.9739957,9.3401864 67.8057347,9.02563048 67.5509397,8.4897204 L67.5509397,8.4897204 L64.0967845,1.21998355 C64.0102505,1.03824013 63.9669834,0.921737939 63.9669834,0.870476973 C63.9669834,0.749314693 64.084766,0.651452851 64.3203311,0.576891448 L64.3203311,0.576891448 L64.3203311,0.353207238 L61.9262193,0.353207238 L61.9262193,0.576891448 C62.1617846,0.637472587 62.2795673,0.728344299 62.2795673,0.849506579 C62.2795673,0.914747806 62.2363002,1.03824013 62.1497659,1.21998355 L62.1497659,1.21998355 L58.5441761,8.76233554 C58.3759151,9.12116227 58.2401047,9.35416667 58.1367443,9.46134867 C58.0333842,9.56853069 57.8831512,9.63843202 57.6860456,9.67105263 L57.6860456,9.67105263 L57.6860456,9.89473684 L59.8782443,9.89473684 Z M65.2866293,6.30879935 L60.8661759,6.30879935 L63.0727969,1.59745066 L65.2866293,6.30879935 Z M74.4808836,10.0625 C75.9231196,10.0625 77.0552749,9.75493421 77.8773493,9.13980263 C78.6176971,8.58991227 78.987871,7.88390899 78.987871,7.02179276 C78.987871,6.11773575 78.5792376,5.44435307 77.7619705,5.00164474 C77.4542934,4.83388158 77.062486,4.71621436 76.5865482,4.64864309 C76.1106102,4.58107181 75.3197841,4.53097587 74.2140701,4.49835526 C73.4160326,4.47505482 72.8403401,4.44126918 72.4869924,4.39699836 C72.1336446,4.35272752 71.8271694,4.27234101 71.567567,4.15583882 C71.3320017,4.05331688 71.1421073,3.89836897 70.9978838,3.69099507 C70.8536601,3.48362116 70.7815483,3.26343202 70.7815483,3.03042762 C70.7815483,2.75082236 70.8740919,2.48519737 71.0591787,2.23355263 C71.2442657,1.98190789 71.4954551,1.77686404 71.8127471,1.61842105 C72.4713682,1.296875 73.2453681,1.13610197 74.134747,1.13610197 C75.216424,1.13610197 76.2404116,1.3551261 77.2067095,1.79317434 C77.5624611,1.95627741 77.740337,2.10773027 77.740337,2.24753288 C77.740337,2.29879385 77.6994737,2.42927632 77.6177468,2.63898025 L77.6177468,2.63898025 L77.8196599,2.74383223 L78.8508587,0.940378291 L78.6489455,0.842516446 C78.4999144,1.02891996 78.382132,1.12212171 78.2955977,1.12212171 C78.2571382,1.12212171 78.1585854,1.0895011 77.9999394,1.02425987 C77.2884362,0.71669408 76.6502469,0.5 76.085371,0.374177632 C75.5204954,0.248355263 74.9087469,0.185444079 74.2501258,0.185444079 C73.4424737,0.185444079 72.6997221,0.286800987 72.0218714,0.489514802 C71.3440204,0.692228619 70.8127967,0.970668859 70.4282005,1.32483553 C69.9089956,1.80948465 69.649393,2.38966558 69.649393,3.06537829 C69.649393,3.46148575 69.7491477,3.82730263 69.948657,4.16282895 C70.1481664,4.49835526 70.4185856,4.75932017 70.7599149,4.94572368 C71.1252812,5.14610745 71.5423279,5.29057017 72.0110545,5.37911183 C72.4797812,5.46765352 73.1275854,5.52823465 73.9544675,5.56085526 C75.1130636,5.60279604 75.8161537,5.63425164 76.0637376,5.65522204 C76.3113214,5.67619244 76.5504922,5.72628838 76.78125,5.80550987 C77.4975605,6.04317434 77.8557159,6.47423246 77.8557159,7.09868421 C77.8557159,7.57401316 77.6465916,7.98410088 77.2283432,8.32894737 C76.5985667,8.84621709 75.6755357,9.10485198 74.4592501,9.10485198 C73.8583185,9.10485198 73.3018557,9.04310581 72.7898619,8.91961349 C72.2778681,8.79612116 71.7454427,8.59457238 71.1925856,8.31496712 C70.5772316,8.00274122 70.2695545,7.77206688 70.2695545,7.62294408 C70.2695545,7.55770284 70.3152255,7.43188048 70.4065671,7.24547697 L70.4065671,7.24547697 L70.2046539,7.13363486 L69.1229769,8.88815789 L69.3176789,9.00699013 C69.4715173,8.83922697 69.5844924,8.75534539 69.6566042,8.75534539 C69.6998713,8.75534539 69.8416912,8.8089364 70.0820639,8.91611842 C70.9425979,9.35416667 71.6829459,9.65474232 72.3031072,9.81784539 C72.9232687,9.98094846 73.6491942,10.0625 74.4808836,10.0625 Z M82.7160511,9.89473684 L82.7160511,9.67105263 C82.5285605,9.62445175 82.4047685,9.56154057 82.3446753,9.48231907 C82.2845821,9.40309758 82.2545356,9.26562501 82.2545356,9.06990131 L82.2545356,9.06990131 L82.2545356,5.44202303 L88.9969888,5.44202303 L88.9969888,9.06990131 C88.9969888,9.26562501 88.9657404,9.40309758 88.9032434,9.48231907 C88.8407466,9.56154057 88.7181565,9.62445175 88.5354733,9.67105263 L88.5354733,9.67105263 L88.5354733,9.89473684 L90.5906594,9.89473684 L90.5906594,9.67105263 C90.4079764,9.62445175 90.2853861,9.56037556 90.2228893,9.47882402 C90.1603925,9.39727248 90.1291439,9.26096491 90.1291439,9.06990131 L90.1291439,9.06990131 L90.1291439,1.17804276 C90.1291439,0.982319078 90.1603925,0.844846491 90.2228893,0.765625 C90.2853861,0.686403509 90.4079764,0.623492324 90.5906594,0.576891448 L90.5906594,0.576891448 L90.5906594,0.353207238 L88.5354733,0.353207238 L88.5354733,0.576891448 C88.7181565,0.618832236 88.8407466,0.6805784 88.9032434,0.762129935 C88.9657404,0.843681469 88.9969888,0.982319078 88.9969888,1.17804276 L88.9969888,1.17804276 L88.9969888,4.53330592 L82.2545356,4.53330592 L82.2545356,1.17804276 C82.2545356,0.982319078 82.285784,0.844846491 82.3482808,0.765625 C82.4107778,0.686403509 82.5333678,0.623492324 82.7160511,0.576891448 L82.7160511,0.576891448 L82.7160511,0.353207238 L80.6608647,0.353207238 L80.6608647,0.576891448 C80.843548,0.618832236 80.966138,0.6805784 81.028635,0.762129935 C81.0911318,0.843681469 81.1223802,0.982319078 81.1223802,1.17804276 L81.1223802,1.17804276 L81.1223802,9.06990131 C81.1223802,9.26562501 81.0923337,9.40309758 81.0322405,9.48231907 C80.9721473,9.56154057 80.8483554,9.62445175 80.6608647,9.67105263 L80.6608647,9.67105263 L80.6608647,9.89473684 L82.7160511,9.89473684 Z" id="path-1"></path>
            </g>
            <g id="EXCHANGE" transform="translate(0.000000, 13.263158)">
                <path d="M8.96731429,10.5526316 L8.96731429,8.74917768 L8.73655653,8.74917768 C8.69328946,8.92626105 8.6295907,9.04509326 8.54546027,9.10567432 C8.46132984,9.16625558 8.31830809,9.19654611 8.11639507,9.19654611 L8.11639507,9.19654611 L1.80661266,9.19654611 L1.80661266,5.65254935 L5.8809293,5.65254935 C6.08284233,5.65254935 6.22586406,5.68283992 6.30999449,5.74342105 C6.39412493,5.80400219 6.45782369,5.92283442 6.50109078,6.09991777 L6.50109078,6.09991777 L6.73184853,6.09991777 L6.73184853,4.29646381 L6.50109078,4.29646381 C6.45782369,4.47354716 6.39412493,4.59237939 6.30999449,4.65296053 C6.22586406,4.71354166 6.08284233,4.74383223 5.8809293,4.74383223 L5.8809293,4.74383223 L1.80661266,4.74383223 L1.80661266,1.47245065 L8.02264972,1.47245065 C8.22456276,1.47245065 8.3675845,1.50274122 8.45171494,1.56332236 C8.53584537,1.62390352 8.59954411,1.74040571 8.6428112,1.91282895 L8.6428112,1.91282895 L8.87356896,1.91282895 L8.87356896,0.109374989 L8.6428112,0.109374989 C8.59473666,0.291118421 8.52983605,0.412280695 8.44810934,0.472861853 C8.36638263,0.533442989 8.22456276,0.563733558 8.02264972,0.563733558 L8.02264972,0.563733558 L0.2129419,0.563733558 L0.2129419,0.787417768 C0.395625124,0.834018632 0.518215183,0.896929832 0.580712074,0.976151326 C0.643208967,1.0553728 0.674457413,1.19284539 0.674457413,1.38856907 L0.674457413,1.38856907 L0.674457413,9.28042758 C0.674457413,9.47615137 0.644410832,9.613624 0.584317665,9.69284547 C0.524224499,9.77206695 0.400432578,9.83497811 0.2129419,9.88157895 L0.2129419,9.88157895 L0.2129419,10.1052632 L8.11639507,10.1052632 C8.31830809,10.1052632 8.46132984,10.1355537 8.54546027,10.1961349 C8.6295907,10.256716 8.69569319,10.3755482 8.74376771,10.5526316 L8.74376771,10.5526316 L8.96731429,10.5526316 Z M12.1835005,10.1052632 L12.1835005,9.88157895 C11.9527428,9.82565789 11.8373639,9.74177642 11.8373639,9.62993432 C11.8373639,9.56003284 11.9719726,9.35731916 12.24119,9.02179284 L12.24119,9.02179284 L14.7578917,5.86924341 L17.2890159,9.02179284 C17.5534258,9.34799895 17.6856308,9.55537284 17.6856308,9.64391453 C17.6856308,9.76507684 17.5702519,9.84429832 17.3394941,9.88157895 L17.3394941,9.88157895 L17.3394941,10.1052632 L19.8634071,10.1052632 L19.8634071,9.88157895 C19.5268854,9.85827853 19.1350779,9.57168316 18.6879848,9.02179284 L18.6879848,9.02179284 L15.450165,5.00246712 L17.7865873,2.03865133 C18.1327239,1.60060307 18.4067488,1.29187225 18.6086618,1.11245888 C18.8105748,0.933045495 19.0100842,0.824698463 19.2071897,0.787417768 L19.2071897,0.787417768 L19.2071897,0.563733558 L16.8635563,0.563733558 L16.8635563,0.787417768 C17.094314,0.824698463 17.2096929,0.90625 17.2096929,1.03207238 C17.2096929,1.16255482 17.094314,1.37225878 16.8635563,1.66118421 L16.8635563,1.66118421 L14.8227924,4.21957238 L12.7820284,1.66118421 C12.5849229,1.41419956 12.4863701,1.225466 12.4863701,1.09498356 C12.4863701,0.959841011 12.6041527,0.857319074 12.8397179,0.787417768 L12.8397179,0.787417768 L12.8397179,0.563733558 L10.3302273,0.563733558 L10.3302273,0.787417768 C10.5321403,0.824698463 10.69319,0.898094842 10.8133763,1.00760691 C10.9335627,1.11711897 11.2196061,1.46080044 11.6715068,2.03865133 L11.6715068,2.03865133 L14.1233079,5.07935855 L10.9936558,9.02179284 C10.772513,9.30139811 10.5693981,9.50760695 10.3843111,9.64041937 C10.1992242,9.773232 10.0081279,9.85361853 9.81102233,9.88157895 L9.81102233,9.88157895 L9.81102233,10.1052632 L12.1835005,10.1052632 Z M25.8342641,10.2730263 C26.6947981,10.2730263 27.4832206,10.1541941 28.1995311,9.91652968 C28.5456677,9.80468758 28.8641614,9.66838 29.1550124,9.50760695 C29.4458634,9.34683389 29.8124316,9.10567432 30.2547174,8.78412821 C30.3845186,8.68626653 30.4758603,8.63733558 30.5287421,8.63733558 C30.6152764,8.63733558 30.7258477,8.69558653 30.8604564,8.81208884 L30.8604564,8.81208884 L31.0407359,8.67228611 L29.7571459,7.16241777 L29.5840776,7.29523027 C29.6658043,7.44435307 29.7066677,7.55153509 29.7066677,7.61677632 C29.7066677,7.74725878 29.4951398,7.96861284 29.0720838,8.28083874 C28.1346305,8.97519179 27.0529535,9.32236842 25.8270529,9.32236842 C24.5723076,9.32236842 23.5170716,8.94723137 22.6613449,8.19695726 C21.7767735,7.42804276 21.3344878,6.46107457 21.3344878,5.29605263 C21.3344878,4.12637061 21.7599474,3.17338267 22.6108666,2.43708882 C23.4473636,1.71477522 24.5386554,1.35361842 25.8847424,1.35361842 C26.8846925,1.35361842 27.8077235,1.55400219 28.6538355,1.95476973 C29.2691894,2.24369518 29.5768665,2.48368968 29.5768665,2.67475328 C29.5768665,2.75397478 29.5552328,2.86348684 29.5119659,3.00328947 L29.5119659,3.00328947 L29.7066677,3.11513158 L30.7739222,1.38856907 L30.5792204,1.28371709 C30.415767,1.46080044 30.3027919,1.54934211 30.2402949,1.54934211 C30.2066427,1.54934211 30.1465497,1.52604166 30.0600154,1.4794408 C28.7427733,0.7571272 27.3798602,0.3959704 25.9712764,0.3959704 C23.8415748,0.3959704 22.2430966,1.05304276 21.1758418,2.36718749 C20.4931835,3.20600328 20.1518543,4.19860198 20.1518543,5.34498356 C20.1518543,6.79893093 20.6975003,7.99424337 21.7887922,8.93092105 C22.8272021,9.82565789 24.1756927,10.2730263 25.8342641,10.2730263 Z M34.7040154,10.1052632 L34.7040154,9.88157895 C34.5165246,9.83497811 34.3927326,9.77206695 34.3326396,9.69284547 C34.2725464,9.613624 34.2424999,9.47615137 34.2424999,9.28042758 L34.2424999,9.28042758 L34.2424999,5.65254935 L40.9849531,5.65254935 L40.9849531,9.28042758 C40.9849531,9.47615137 40.9537045,9.613624 40.8912077,9.69284547 C40.8287107,9.77206695 40.7061207,9.83497811 40.5234376,9.88157895 L40.5234376,9.88157895 L40.5234376,10.1052632 L42.5786237,10.1052632 L42.5786237,9.88157895 C42.3959405,9.83497811 42.2733505,9.77090189 42.2108536,9.68935032 C42.1483566,9.60779874 42.1171082,9.47149116 42.1171082,9.28042758 L42.1171082,9.28042758 L42.1171082,1.38856907 C42.1171082,1.19284539 42.1483566,1.0553728 42.2108536,0.976151326 C42.2733505,0.896929832 42.3959405,0.834018632 42.5786237,0.787417768 L42.5786237,0.787417768 L42.5786237,0.563733558 L40.5234376,0.563733558 L40.5234376,0.787417768 C40.7061207,0.829358547 40.8287107,0.891104716 40.8912077,0.972656253 C40.9537045,1.05420779 40.9849531,1.19284539 40.9849531,1.38856907 L40.9849531,1.38856907 L40.9849531,4.74383223 L34.2424999,4.74383223 L34.2424999,1.38856907 C34.2424999,1.19284539 34.2737483,1.0553728 34.3362451,0.976151326 C34.3987421,0.896929832 34.5213321,0.834018632 34.7040154,0.787417768 L34.7040154,0.787417768 L34.7040154,0.563733558 L32.6488291,0.563733558 L32.6488291,0.787417768 C32.8315123,0.829358547 32.9541023,0.891104716 33.0165992,0.972656253 C33.0790962,1.05420779 33.1103446,1.19284539 33.1103446,1.38856907 L33.1103446,1.38856907 L33.1103446,9.28042758 C33.1103446,9.47615137 33.0802981,9.613624 33.0202048,9.69284547 C32.9601116,9.77206695 32.8363197,9.83497811 32.6488291,9.88157895 L32.6488291,9.88157895 L32.6488291,10.1052632 L34.7040154,10.1052632 Z M45.8957666,10.1052632 L45.8957666,9.88157895 C45.6121268,9.83497811 45.4703069,9.74177642 45.4703069,9.60197368 C45.4703069,9.53207242 45.5111702,9.41091011 45.5928969,9.23848674 L45.5928969,9.23848674 L46.4582385,7.42804276 L51.7296111,7.42804276 L52.5300521,9.14062505 C52.635816,9.35498905 52.6886979,9.49945179 52.6886979,9.57401305 C52.6886979,9.74177642 52.5492818,9.84429832 52.2704495,9.88157895 L52.2704495,9.88157895 L52.2704495,10.1052632 L54.6068719,10.1052632 L54.6068719,9.88157895 C54.332847,9.81633768 54.1549711,9.73711621 54.0732444,9.64391453 C53.9915177,9.55071263 53.823257,9.23615684 53.568462,8.70024674 L53.568462,8.70024674 L50.1143068,1.43050987 C50.0277725,1.24876644 49.9845056,1.13226425 49.9845056,1.08100328 C49.9845056,0.959841011 50.1022881,0.861979158 50.3378534,0.787417768 L50.3378534,0.787417768 L50.3378534,0.563733558 L47.9437416,0.563733558 L47.9437416,0.787417768 C48.1793069,0.847998905 48.2970894,0.938870611 48.2970894,1.06003288 C48.2970894,1.12527413 48.2538225,1.24876644 48.1672882,1.43050987 L48.1672882,1.43050987 L44.5616983,8.97286189 C44.3934374,9.33168863 44.2576267,9.56469305 44.1542666,9.67187495 C44.0509062,9.77905705 43.9006735,9.84895832 43.7035679,9.88157895 L43.7035679,9.88157895 L43.7035679,10.1052632 L45.8957666,10.1052632 Z M51.3041514,6.51932566 L46.8836982,6.51932566 L49.0903192,1.80797697 L51.3041514,6.51932566 Z M57.5850891,10.1052632 L57.5850891,9.88157895 C57.4024058,9.83497811 57.2798158,9.77090189 57.217319,9.68935032 C57.154822,9.60779874 57.1235736,9.47149116 57.1235736,9.28042758 L57.1235736,9.28042758 L57.1235736,1.77302632 L63.635269,9.09169411 C63.8371822,9.32469853 63.9381385,9.49246168 63.9381385,9.59498358 C63.9381385,9.73012611 63.8275672,9.82565789 63.6064244,9.88157895 L63.6064244,9.88157895 L63.6064244,10.1052632 L65.877946,10.1052632 L65.877946,9.88157895 C65.6952627,9.83497811 65.5726727,9.77206695 65.5101759,9.69284547 C65.4476789,9.613624 65.4164305,9.47615137 65.4164305,9.28042758 L65.4164305,9.28042758 L65.4164305,1.38856907 C65.4164305,1.19284539 65.4476789,1.05420779 65.5101759,0.972656253 C65.5726727,0.891104716 65.6952627,0.829358547 65.877946,0.787417768 L65.877946,0.787417768 L65.877946,0.563733558 L63.9237162,0.563733558 L63.9237162,0.787417768 C64.1063995,0.829358547 64.2289895,0.891104716 64.2914865,0.972656253 C64.3539833,1.05420779 64.3852317,1.19284539 64.3852317,1.38856907 L64.3852317,1.38856907 L64.3852317,8.35074021 L58.4576418,1.62623356 C58.2316916,1.36992874 58.1187163,1.19517543 58.1187163,1.10197368 C58.1187163,0.966831137 58.2316916,0.861979158 58.4576418,0.787417768 L58.4576418,0.787417768 L58.4576418,0.563733558 L55.6308593,0.563733558 L55.6308593,0.787417768 C55.8135426,0.829358547 55.9361326,0.891104716 55.9986296,0.972656253 C56.0611264,1.05420779 56.0923748,1.19284539 56.0923748,1.38856907 L56.0923748,1.38856907 L56.0923748,9.28042758 C56.0923748,9.47615137 56.0623283,9.613624 56.0022351,9.69284547 C55.9421421,9.77206695 55.8183501,9.83497811 55.6308593,9.88157895 L55.6308593,9.88157895 L55.6308593,10.1052632 L57.5850891,10.1052632 Z M73.4280514,10.2730263 C74.7645234,10.2730263 75.954368,9.98876105 76.9975855,9.42023032 C77.4783306,9.15926526 77.9903244,8.79344842 78.5335666,8.32277958 L78.5335666,8.32277958 L78.5335666,8.127056 C78.3508836,8.08045495 78.2282933,8.01754379 78.1657965,7.93832232 C78.1032997,7.85910084 78.0720511,7.72162829 78.0720511,7.52590461 L78.0720511,7.52590461 L78.0720511,6.28865133 C78.0720511,6.09292762 78.1032997,5.95545505 78.1657965,5.87623356 C78.2282933,5.79701206 78.3508836,5.73410088 78.5335666,5.6875 L78.5335666,5.6875 L78.5335666,5.46381579 L74.6611631,5.46381579 C74.4592501,5.46381579 74.3162283,5.43352522 74.2320978,5.37294408 C74.1479676,5.31236295 74.0842687,5.19353069 74.0410015,5.01644737 L74.0410015,5.01644737 L73.8102438,5.01644737 L73.8102438,6.81990131 L74.0410015,6.81990131 C74.0842687,6.64281798 74.1479676,6.52398575 74.2320978,6.46340461 C74.3162283,6.40282347 74.4592501,6.37253288 74.6611631,6.37253288 L74.6611631,6.37253288 L76.9903743,6.37253288 L76.9903743,8.13404611 C76.5673183,8.50685305 76.0469115,8.79694358 75.4291538,9.00431747 C74.811396,9.21169137 74.161188,9.31537832 73.4785297,9.31537832 C72.1853248,9.31537832 71.1228776,8.97752189 70.2911882,8.30180926 C69.3873868,7.57017543 68.9354863,6.58689693 68.9354863,5.35197368 C68.9354863,4.08442983 69.4090205,3.07785088 70.3560888,2.33223684 C71.1829706,1.67516446 72.1997471,1.34662829 73.4064179,1.34662829 C74.4448278,1.34662829 75.4592003,1.6075932 76.4495357,2.12952303 C76.9639333,2.39514802 77.2211321,2.60019189 77.2211321,2.74465461 C77.2211321,2.81455592 77.1778649,2.91940789 77.0913307,3.05921053 L77.0913307,3.05921053 L77.2788215,3.18503288 L78.382132,1.4794408 L78.18743,1.35361842 C78.0287842,1.54934211 77.9110015,1.64720396 77.8340822,1.64720396 C77.7860077,1.64720396 77.6586103,1.59128291 77.4518898,1.4794408 C76.7403867,1.09265352 76.076958,0.815378295 75.4616041,0.647615137 C74.8462501,0.479851979 74.1780141,0.3959704 73.456896,0.3959704 C72.6348215,0.3959704 71.8656289,0.519462716 71.1493184,0.766447368 C70.1349458,1.12061404 69.3272936,1.68215461 68.726362,2.45106907 C68.0773558,3.28522478 67.7528529,4.24054276 67.7528529,5.31702303 C67.7528529,6.06729716 67.9187098,6.78029057 68.2504242,7.45600328 C68.5436789,8.04783453 68.9402936,8.555784 69.4402689,8.979852 C70.4546416,9.84196821 71.7839023,10.2730263 73.4280514,10.2730263 Z M89.1556346,10.5526316 L89.1556346,8.74917768 L88.9248768,8.74917768 C88.8816099,8.92626105 88.817911,9.04509326 88.7337807,9.10567432 C88.6496503,9.16625558 88.5066285,9.19654611 88.3047155,9.19654611 L88.3047155,9.19654611 L81.994933,9.19654611 L81.994933,5.65254935 L86.0692497,5.65254935 C86.2711626,5.65254935 86.4141844,5.68283992 86.4983149,5.74342105 C86.5824454,5.80400219 86.6461441,5.92283442 86.6894112,6.09991777 L86.6894112,6.09991777 L86.920169,6.09991777 L86.920169,4.29646381 L86.6894112,4.29646381 C86.6461441,4.47354716 86.5824454,4.59237939 86.4983149,4.65296053 C86.4141844,4.71354166 86.2711626,4.74383223 86.0692497,4.74383223 L86.0692497,4.74383223 L81.994933,4.74383223 L81.994933,1.47245065 L88.2109701,1.47245065 C88.4128832,1.47245065 88.5559048,1.50274122 88.6400353,1.56332236 C88.7241658,1.62390352 88.7878645,1.74040571 88.8311316,1.91282895 L88.8311316,1.91282895 L89.0618894,1.91282895 L89.0618894,0.109374989 L88.8311316,0.109374989 C88.7830571,0.291118421 88.7181565,0.412280695 88.6364299,0.472861853 C88.5547029,0.533442989 88.4128832,0.563733558 88.2109701,0.563733558 L88.2109701,0.563733558 L80.4012624,0.563733558 L80.4012624,0.787417768 C80.5839456,0.834018632 80.7065357,0.896929832 80.7690325,0.976151326 C80.8315295,1.0553728 80.8627779,1.19284539 80.8627779,1.38856907 L80.8627779,1.38856907 L80.8627779,9.28042758 C80.8627779,9.47615137 80.8327312,9.613624 80.7726381,9.69284547 C80.7125449,9.77206695 80.588753,9.83497811 80.4012624,9.88157895 L80.4012624,9.88157895 L80.4012624,10.1052632 L88.3047155,10.1052632 C88.5066285,10.1052632 88.6496503,10.1355537 88.7337807,10.1961349 C88.817911,10.256716 88.8840135,10.3755482 88.9320882,10.5526316 L88.9320882,10.5526316 L89.1556346,10.5526316 Z" id="path-2"></path>
                <path d="M8.96731429,10.5526316 L8.96731429,8.74917768 L8.73655653,8.74917768 C8.69328946,8.92626105 8.6295907,9.04509326 8.54546027,9.10567432 C8.46132984,9.16625558 8.31830809,9.19654611 8.11639507,9.19654611 L8.11639507,9.19654611 L1.80661266,9.19654611 L1.80661266,5.65254935 L5.8809293,5.65254935 C6.08284233,5.65254935 6.22586406,5.68283992 6.30999449,5.74342105 C6.39412493,5.80400219 6.45782369,5.92283442 6.50109078,6.09991777 L6.50109078,6.09991777 L6.73184853,6.09991777 L6.73184853,4.29646381 L6.50109078,4.29646381 C6.45782369,4.47354716 6.39412493,4.59237939 6.30999449,4.65296053 C6.22586406,4.71354166 6.08284233,4.74383223 5.8809293,4.74383223 L5.8809293,4.74383223 L1.80661266,4.74383223 L1.80661266,1.47245065 L8.02264972,1.47245065 C8.22456276,1.47245065 8.3675845,1.50274122 8.45171494,1.56332236 C8.53584537,1.62390352 8.59954411,1.74040571 8.6428112,1.91282895 L8.6428112,1.91282895 L8.87356896,1.91282895 L8.87356896,0.109374989 L8.6428112,0.109374989 C8.59473666,0.291118421 8.52983605,0.412280695 8.44810934,0.472861853 C8.36638263,0.533442989 8.22456276,0.563733558 8.02264972,0.563733558 L8.02264972,0.563733558 L0.2129419,0.563733558 L0.2129419,0.787417768 C0.395625124,0.834018632 0.518215183,0.896929832 0.580712074,0.976151326 C0.643208967,1.0553728 0.674457413,1.19284539 0.674457413,1.38856907 L0.674457413,1.38856907 L0.674457413,9.28042758 C0.674457413,9.47615137 0.644410832,9.613624 0.584317665,9.69284547 C0.524224499,9.77206695 0.400432578,9.83497811 0.2129419,9.88157895 L0.2129419,9.88157895 L0.2129419,10.1052632 L8.11639507,10.1052632 C8.31830809,10.1052632 8.46132984,10.1355537 8.54546027,10.1961349 C8.6295907,10.256716 8.69569319,10.3755482 8.74376771,10.5526316 L8.74376771,10.5526316 L8.96731429,10.5526316 Z M12.1835005,10.1052632 L12.1835005,9.88157895 C11.9527428,9.82565789 11.8373639,9.74177642 11.8373639,9.62993432 C11.8373639,9.56003284 11.9719726,9.35731916 12.24119,9.02179284 L12.24119,9.02179284 L14.7578917,5.86924341 L17.2890159,9.02179284 C17.5534258,9.34799895 17.6856308,9.55537284 17.6856308,9.64391453 C17.6856308,9.76507684 17.5702519,9.84429832 17.3394941,9.88157895 L17.3394941,9.88157895 L17.3394941,10.1052632 L19.8634071,10.1052632 L19.8634071,9.88157895 C19.5268854,9.85827853 19.1350779,9.57168316 18.6879848,9.02179284 L18.6879848,9.02179284 L15.450165,5.00246712 L17.7865873,2.03865133 C18.1327239,1.60060307 18.4067488,1.29187225 18.6086618,1.11245888 C18.8105748,0.933045495 19.0100842,0.824698463 19.2071897,0.787417768 L19.2071897,0.787417768 L19.2071897,0.563733558 L16.8635563,0.563733558 L16.8635563,0.787417768 C17.094314,0.824698463 17.2096929,0.90625 17.2096929,1.03207238 C17.2096929,1.16255482 17.094314,1.37225878 16.8635563,1.66118421 L16.8635563,1.66118421 L14.8227924,4.21957238 L12.7820284,1.66118421 C12.5849229,1.41419956 12.4863701,1.225466 12.4863701,1.09498356 C12.4863701,0.959841011 12.6041527,0.857319074 12.8397179,0.787417768 L12.8397179,0.787417768 L12.8397179,0.563733558 L10.3302273,0.563733558 L10.3302273,0.787417768 C10.5321403,0.824698463 10.69319,0.898094842 10.8133763,1.00760691 C10.9335627,1.11711897 11.2196061,1.46080044 11.6715068,2.03865133 L11.6715068,2.03865133 L14.1233079,5.07935855 L10.9936558,9.02179284 C10.772513,9.30139811 10.5693981,9.50760695 10.3843111,9.64041937 C10.1992242,9.773232 10.0081279,9.85361853 9.81102233,9.88157895 L9.81102233,9.88157895 L9.81102233,10.1052632 L12.1835005,10.1052632 Z M25.8342641,10.2730263 C26.6947981,10.2730263 27.4832206,10.1541941 28.1995311,9.91652968 C28.5456677,9.80468758 28.8641614,9.66838 29.1550124,9.50760695 C29.4458634,9.34683389 29.8124316,9.10567432 30.2547174,8.78412821 C30.3845186,8.68626653 30.4758603,8.63733558 30.5287421,8.63733558 C30.6152764,8.63733558 30.7258477,8.69558653 30.8604564,8.81208884 L30.8604564,8.81208884 L31.0407359,8.67228611 L29.7571459,7.16241777 L29.5840776,7.29523027 C29.6658043,7.44435307 29.7066677,7.55153509 29.7066677,7.61677632 C29.7066677,7.74725878 29.4951398,7.96861284 29.0720838,8.28083874 C28.1346305,8.97519179 27.0529535,9.32236842 25.8270529,9.32236842 C24.5723076,9.32236842 23.5170716,8.94723137 22.6613449,8.19695726 C21.7767735,7.42804276 21.3344878,6.46107457 21.3344878,5.29605263 C21.3344878,4.12637061 21.7599474,3.17338267 22.6108666,2.43708882 C23.4473636,1.71477522 24.5386554,1.35361842 25.8847424,1.35361842 C26.8846925,1.35361842 27.8077235,1.55400219 28.6538355,1.95476973 C29.2691894,2.24369518 29.5768665,2.48368968 29.5768665,2.67475328 C29.5768665,2.75397478 29.5552328,2.86348684 29.5119659,3.00328947 L29.5119659,3.00328947 L29.7066677,3.11513158 L30.7739222,1.38856907 L30.5792204,1.28371709 C30.415767,1.46080044 30.3027919,1.54934211 30.2402949,1.54934211 C30.2066427,1.54934211 30.1465497,1.52604166 30.0600154,1.4794408 C28.7427733,0.7571272 27.3798602,0.3959704 25.9712764,0.3959704 C23.8415748,0.3959704 22.2430966,1.05304276 21.1758418,2.36718749 C20.4931835,3.20600328 20.1518543,4.19860198 20.1518543,5.34498356 C20.1518543,6.79893093 20.6975003,7.99424337 21.7887922,8.93092105 C22.8272021,9.82565789 24.1756927,10.2730263 25.8342641,10.2730263 Z M34.7040154,10.1052632 L34.7040154,9.88157895 C34.5165246,9.83497811 34.3927326,9.77206695 34.3326396,9.69284547 C34.2725464,9.613624 34.2424999,9.47615137 34.2424999,9.28042758 L34.2424999,9.28042758 L34.2424999,5.65254935 L40.9849531,5.65254935 L40.9849531,9.28042758 C40.9849531,9.47615137 40.9537045,9.613624 40.8912077,9.69284547 C40.8287107,9.77206695 40.7061207,9.83497811 40.5234376,9.88157895 L40.5234376,9.88157895 L40.5234376,10.1052632 L42.5786237,10.1052632 L42.5786237,9.88157895 C42.3959405,9.83497811 42.2733505,9.77090189 42.2108536,9.68935032 C42.1483566,9.60779874 42.1171082,9.47149116 42.1171082,9.28042758 L42.1171082,9.28042758 L42.1171082,1.38856907 C42.1171082,1.19284539 42.1483566,1.0553728 42.2108536,0.976151326 C42.2733505,0.896929832 42.3959405,0.834018632 42.5786237,0.787417768 L42.5786237,0.787417768 L42.5786237,0.563733558 L40.5234376,0.563733558 L40.5234376,0.787417768 C40.7061207,0.829358547 40.8287107,0.891104716 40.8912077,0.972656253 C40.9537045,1.05420779 40.9849531,1.19284539 40.9849531,1.38856907 L40.9849531,1.38856907 L40.9849531,4.74383223 L34.2424999,4.74383223 L34.2424999,1.38856907 C34.2424999,1.19284539 34.2737483,1.0553728 34.3362451,0.976151326 C34.3987421,0.896929832 34.5213321,0.834018632 34.7040154,0.787417768 L34.7040154,0.787417768 L34.7040154,0.563733558 L32.6488291,0.563733558 L32.6488291,0.787417768 C32.8315123,0.829358547 32.9541023,0.891104716 33.0165992,0.972656253 C33.0790962,1.05420779 33.1103446,1.19284539 33.1103446,1.38856907 L33.1103446,1.38856907 L33.1103446,9.28042758 C33.1103446,9.47615137 33.0802981,9.613624 33.0202048,9.69284547 C32.9601116,9.77206695 32.8363197,9.83497811 32.6488291,9.88157895 L32.6488291,9.88157895 L32.6488291,10.1052632 L34.7040154,10.1052632 Z M45.8957666,10.1052632 L45.8957666,9.88157895 C45.6121268,9.83497811 45.4703069,9.74177642 45.4703069,9.60197368 C45.4703069,9.53207242 45.5111702,9.41091011 45.5928969,9.23848674 L45.5928969,9.23848674 L46.4582385,7.42804276 L51.7296111,7.42804276 L52.5300521,9.14062505 C52.635816,9.35498905 52.6886979,9.49945179 52.6886979,9.57401305 C52.6886979,9.74177642 52.5492818,9.84429832 52.2704495,9.88157895 L52.2704495,9.88157895 L52.2704495,10.1052632 L54.6068719,10.1052632 L54.6068719,9.88157895 C54.332847,9.81633768 54.1549711,9.73711621 54.0732444,9.64391453 C53.9915177,9.55071263 53.823257,9.23615684 53.568462,8.70024674 L53.568462,8.70024674 L50.1143068,1.43050987 C50.0277725,1.24876644 49.9845056,1.13226425 49.9845056,1.08100328 C49.9845056,0.959841011 50.1022881,0.861979158 50.3378534,0.787417768 L50.3378534,0.787417768 L50.3378534,0.563733558 L47.9437416,0.563733558 L47.9437416,0.787417768 C48.1793069,0.847998905 48.2970894,0.938870611 48.2970894,1.06003288 C48.2970894,1.12527413 48.2538225,1.24876644 48.1672882,1.43050987 L48.1672882,1.43050987 L44.5616983,8.97286189 C44.3934374,9.33168863 44.2576267,9.56469305 44.1542666,9.67187495 C44.0509062,9.77905705 43.9006735,9.84895832 43.7035679,9.88157895 L43.7035679,9.88157895 L43.7035679,10.1052632 L45.8957666,10.1052632 Z M51.3041514,6.51932566 L46.8836982,6.51932566 L49.0903192,1.80797697 L51.3041514,6.51932566 Z M57.5850891,10.1052632 L57.5850891,9.88157895 C57.4024058,9.83497811 57.2798158,9.77090189 57.217319,9.68935032 C57.154822,9.60779874 57.1235736,9.47149116 57.1235736,9.28042758 L57.1235736,9.28042758 L57.1235736,1.77302632 L63.635269,9.09169411 C63.8371822,9.32469853 63.9381385,9.49246168 63.9381385,9.59498358 C63.9381385,9.73012611 63.8275672,9.82565789 63.6064244,9.88157895 L63.6064244,9.88157895 L63.6064244,10.1052632 L65.877946,10.1052632 L65.877946,9.88157895 C65.6952627,9.83497811 65.5726727,9.77206695 65.5101759,9.69284547 C65.4476789,9.613624 65.4164305,9.47615137 65.4164305,9.28042758 L65.4164305,9.28042758 L65.4164305,1.38856907 C65.4164305,1.19284539 65.4476789,1.05420779 65.5101759,0.972656253 C65.5726727,0.891104716 65.6952627,0.829358547 65.877946,0.787417768 L65.877946,0.787417768 L65.877946,0.563733558 L63.9237162,0.563733558 L63.9237162,0.787417768 C64.1063995,0.829358547 64.2289895,0.891104716 64.2914865,0.972656253 C64.3539833,1.05420779 64.3852317,1.19284539 64.3852317,1.38856907 L64.3852317,1.38856907 L64.3852317,8.35074021 L58.4576418,1.62623356 C58.2316916,1.36992874 58.1187163,1.19517543 58.1187163,1.10197368 C58.1187163,0.966831137 58.2316916,0.861979158 58.4576418,0.787417768 L58.4576418,0.787417768 L58.4576418,0.563733558 L55.6308593,0.563733558 L55.6308593,0.787417768 C55.8135426,0.829358547 55.9361326,0.891104716 55.9986296,0.972656253 C56.0611264,1.05420779 56.0923748,1.19284539 56.0923748,1.38856907 L56.0923748,1.38856907 L56.0923748,9.28042758 C56.0923748,9.47615137 56.0623283,9.613624 56.0022351,9.69284547 C55.9421421,9.77206695 55.8183501,9.83497811 55.6308593,9.88157895 L55.6308593,9.88157895 L55.6308593,10.1052632 L57.5850891,10.1052632 Z M73.4280514,10.2730263 C74.7645234,10.2730263 75.954368,9.98876105 76.9975855,9.42023032 C77.4783306,9.15926526 77.9903244,8.79344842 78.5335666,8.32277958 L78.5335666,8.32277958 L78.5335666,8.127056 C78.3508836,8.08045495 78.2282933,8.01754379 78.1657965,7.93832232 C78.1032997,7.85910084 78.0720511,7.72162829 78.0720511,7.52590461 L78.0720511,7.52590461 L78.0720511,6.28865133 C78.0720511,6.09292762 78.1032997,5.95545505 78.1657965,5.87623356 C78.2282933,5.79701206 78.3508836,5.73410088 78.5335666,5.6875 L78.5335666,5.6875 L78.5335666,5.46381579 L74.6611631,5.46381579 C74.4592501,5.46381579 74.3162283,5.43352522 74.2320978,5.37294408 C74.1479676,5.31236295 74.0842687,5.19353069 74.0410015,5.01644737 L74.0410015,5.01644737 L73.8102438,5.01644737 L73.8102438,6.81990131 L74.0410015,6.81990131 C74.0842687,6.64281798 74.1479676,6.52398575 74.2320978,6.46340461 C74.3162283,6.40282347 74.4592501,6.37253288 74.6611631,6.37253288 L74.6611631,6.37253288 L76.9903743,6.37253288 L76.9903743,8.13404611 C76.5673183,8.50685305 76.0469115,8.79694358 75.4291538,9.00431747 C74.811396,9.21169137 74.161188,9.31537832 73.4785297,9.31537832 C72.1853248,9.31537832 71.1228776,8.97752189 70.2911882,8.30180926 C69.3873868,7.57017543 68.9354863,6.58689693 68.9354863,5.35197368 C68.9354863,4.08442983 69.4090205,3.07785088 70.3560888,2.33223684 C71.1829706,1.67516446 72.1997471,1.34662829 73.4064179,1.34662829 C74.4448278,1.34662829 75.4592003,1.6075932 76.4495357,2.12952303 C76.9639333,2.39514802 77.2211321,2.60019189 77.2211321,2.74465461 C77.2211321,2.81455592 77.1778649,2.91940789 77.0913307,3.05921053 L77.0913307,3.05921053 L77.2788215,3.18503288 L78.382132,1.4794408 L78.18743,1.35361842 C78.0287842,1.54934211 77.9110015,1.64720396 77.8340822,1.64720396 C77.7860077,1.64720396 77.6586103,1.59128291 77.4518898,1.4794408 C76.7403867,1.09265352 76.076958,0.815378295 75.4616041,0.647615137 C74.8462501,0.479851979 74.1780141,0.3959704 73.456896,0.3959704 C72.6348215,0.3959704 71.8656289,0.519462716 71.1493184,0.766447368 C70.1349458,1.12061404 69.3272936,1.68215461 68.726362,2.45106907 C68.0773558,3.28522478 67.7528529,4.24054276 67.7528529,5.31702303 C67.7528529,6.06729716 67.9187098,6.78029057 68.2504242,7.45600328 C68.5436789,8.04783453 68.9402936,8.555784 69.4402689,8.979852 C70.4546416,9.84196821 71.7839023,10.2730263 73.4280514,10.2730263 Z M89.1556346,10.5526316 L89.1556346,8.74917768 L88.9248768,8.74917768 C88.8816099,8.92626105 88.817911,9.04509326 88.7337807,9.10567432 C88.6496503,9.16625558 88.5066285,9.19654611 88.3047155,9.19654611 L88.3047155,9.19654611 L81.994933,9.19654611 L81.994933,5.65254935 L86.0692497,5.65254935 C86.2711626,5.65254935 86.4141844,5.68283992 86.4983149,5.74342105 C86.5824454,5.80400219 86.6461441,5.92283442 86.6894112,6.09991777 L86.6894112,6.09991777 L86.920169,6.09991777 L86.920169,4.29646381 L86.6894112,4.29646381 C86.6461441,4.47354716 86.5824454,4.59237939 86.4983149,4.65296053 C86.4141844,4.71354166 86.2711626,4.74383223 86.0692497,4.74383223 L86.0692497,4.74383223 L81.994933,4.74383223 L81.994933,1.47245065 L88.2109701,1.47245065 C88.4128832,1.47245065 88.5559048,1.50274122 88.6400353,1.56332236 C88.7241658,1.62390352 88.7878645,1.74040571 88.8311316,1.91282895 L88.8311316,1.91282895 L89.0618894,1.91282895 L89.0618894,0.109374989 L88.8311316,0.109374989 C88.7830571,0.291118421 88.7181565,0.412280695 88.6364299,0.472861853 C88.5547029,0.533442989 88.4128832,0.563733558 88.2109701,0.563733558 L88.2109701,0.563733558 L80.4012624,0.563733558 L80.4012624,0.787417768 C80.5839456,0.834018632 80.7065357,0.896929832 80.7690325,0.976151326 C80.8315295,1.0553728 80.8627779,1.19284539 80.8627779,1.38856907 L80.8627779,1.38856907 L80.8627779,9.28042758 C80.8627779,9.47615137 80.8327312,9.613624 80.7726381,9.69284547 C80.7125449,9.77206695 80.588753,9.83497811 80.4012624,9.88157895 L80.4012624,9.88157895 L80.4012624,10.1052632 L88.3047155,10.1052632 C88.5066285,10.1052632 88.6496503,10.1355537 88.7337807,10.1961349 C88.817911,10.256716 88.8840135,10.3755482 88.9320882,10.5526316 L88.9320882,10.5526316 L89.1556346,10.5526316 Z" id="path-2"></path>
            </g>
        </g>
    </g>
</svg>